<?xml version="1.0" encoding="UTF-8"?>
<svg width="76px" height="49px" viewBox="0 0 76 49" version="1.1" xmlns="http://www.w3.org/2000/svg" xmlns:xlink="http://www.w3.org/1999/xlink">
    <!-- Generator: Sketch 52.4 (67378) - http://www.bohemiancoding.com/sketch -->
    <title>Aadhaar English Logo</title>
    <desc>Created with Sketch.</desc>
    <g id="Page-1" stroke="none" stroke-width="1" fill="none" fill-rule="evenodd">
        <g id="Logo" transform="translate(-962.000000, -99.000000)">
            <g id="Aadhaar-English-Logo" transform="translate(962.000000, 99.000000)">
                <g id="English-Logo">
                    <path d="M-1.70530257e-13,37.925 C0.675568182,37.5877273 1.18579545,37.0063636 1.69113636,36.385 C2.30772727,35.6286364 2.91170455,34.91 3.66,34.2951136 C4.55670455,33.5593182 5.75602273,32.8552273 7.26420455,32.6322727 C6.9675,34.3523864 6.81090909,36.1202273 6.80931818,37.925 L-1.70530257e-13,37.925 Z M5.07795455,18.9628409 L5.07886364,18.9635227 L5.07829545,18.9625 C5.83238636,19.0082955 6.56511364,18.7598864 7.31306818,18.4748864 C8.225,18.1279545 9.10795455,17.8080682 10.0627273,17.6495455 C11.2127273,17.4598864 12.6117045,17.4511364 14.0360227,18.0210227 C11.7777273,20.7245455 9.96897727,23.81625 8.72556818,27.1827273 C7.52988636,26.235 6.84284091,25.0244318 6.43375,23.9379545 C6.09329545,23.03125 5.92897727,22.1067045 5.77340909,21.1432955 C5.64613636,20.3521591 5.49511364,19.5932955 5.07795455,18.9628409 Z M18.9535227,5.08113636 L18.9538636,5.08181818 L18.9538636,5.08079545 C19.5838636,5.49795455 20.3428409,5.64931818 21.1332955,5.77659091 C22.0964773,5.9325 23.0209091,6.09647727 23.9267045,6.43727273 C25.0177273,6.84795455 26.2334091,7.53988636 27.1827273,8.74625 C23.8143182,9.98443182 20.7203409,11.7909091 18.0138636,14.0467045 C17.4428409,12.6203409 17.4511364,11.2190909 17.64125,10.0675 C17.7994318,9.11215909 18.1192045,8.22920455 18.4661364,7.31693182 C18.7515909,6.56863636 18.9995455,5.83556818 18.9535227,5.08113636 Z M37.9079545,5.68434189e-14 L37.9079545,0.00102272727 L37.9089773,5.68434189e-14 C38.2455682,0.676477273 38.8272727,1.18704545 39.4482955,1.69215909 C40.2043182,2.30931818 40.9227273,2.91363636 41.5372727,3.66193182 C42.2771591,4.56477273 42.9855682,5.77397727 43.2036364,7.29636364 C41.4825,7.00125 39.7140909,6.84534091 37.9082955,6.84534091 C36.1028409,6.84534091 34.3344318,7.00125 32.6126136,7.29670455 C32.8310227,5.77397727 33.53875,4.56477273 34.2793182,3.66193182 C34.8938636,2.91363636 35.6122727,2.30931818 36.3681818,1.69215909 C36.9896591,1.18704545 37.5710227,0.676477273 37.9079545,5.68434189e-14 Z M56.8620455,5.08079545 L56.8620455,5.08181818 L56.8627273,5.08113636 C56.8167045,5.83522727 57.065,6.56840909 57.3504545,7.31693182 C57.6967045,8.22920455 58.0171591,9.11215909 58.1753409,10.0675 C58.3647727,11.21875 58.3731818,12.62 57.8023864,14.0463636 C55.09625,11.7905682 52.0019318,9.98477273 48.6338636,8.74590909 C49.5831818,7.53988636 50.7985227,6.84795455 51.8895455,6.43727273 C52.7956818,6.09613636 53.7201136,5.93215909 54.6832955,5.77625 C55.47375,5.64931818 56.2326136,5.49795455 56.8620455,5.08079545 Z M70.7379545,18.9621591 L70.7373864,18.9628409 L70.7382955,18.9628409 C70.3214773,19.5929545 70.1704545,20.3521591 70.0431818,21.1432955 C69.8872727,22.1063636 69.7232955,23.03125 69.3828409,23.9376136 C68.97375,25.0242045 68.2867045,26.2346591 67.0906818,27.1823864 C65.8479545,23.8159091 64.0388636,20.7242045 61.7805682,18.0206818 C63.2052273,17.4511364 64.6035227,17.4595455 65.7538636,17.6492045 C66.7086364,17.8077273 67.5915909,18.1276136 68.5034091,18.4745455 C69.2513636,18.7598864 69.9842045,19.0082955 70.7379545,18.9621591 Z M68.5520455,32.6319318 C70.0602273,32.8552273 71.2597727,33.5589773 72.1565909,34.2951136 C72.9048864,34.9096591 73.5088636,35.6282955 74.1256818,36.385 C74.6304545,37.0060227 75.1406818,37.5877273 75.8168182,37.925 L69.0076136,37.925 C69.0056818,36.1202273 68.84875,34.3523864 68.5520455,32.6319318 Z M46.94625,10.6689773 C58.3921591,14.45125 66.6644318,25.2196591 66.7121591,37.9256818 L61.0486364,37.9256818 C61.4239773,26.8267045 56.5818182,16.8088636 46.94625,10.6689773 Z" id="Fill-28" fill="#FAB401"></path>
                    <path d="M48.0955682,37.925 L51.0388636,37.925 C51.18125,34.7254545 50.9070455,30.9347727 49.8723864,27.6246591 C49.6681818,26.9717045 49.4343182,26.3373864 49.1692045,25.7321591 C48.5430682,24.3019318 47.7,23.0070455 46.6947727,21.8103409 C45.5779545,20.4813636 44.2465909,19.2859091 42.7459091,18.3444318 C42.3032955,18.0663636 41.8439773,17.81 41.3701136,17.5784091 L41.3701136,17.5777273 C40.8994318,17.3473864 40.4130682,17.1419318 39.9121591,16.9640909 L39.9102273,16.9631818 C34.1781818,14.9273864 28.3810227,16.3752273 23.5179545,19.0218182 C22.57,19.5375 21.6573864,20.0986364 20.7886364,20.6880682 C19.9202273,21.2772727 19.0932955,21.8960227 18.3156818,22.5270455 L18.3151136,22.5270455 L18.3140909,22.5284091 C17.3909091,23.2776136 16.2354545,24.3022727 15.0926136,25.5140909 C14.8675,25.7525 14.6452273,25.9953409 14.4290909,26.2411364 C13.8502273,26.8969318 12.9592045,27.8165909 13.2234091,28.7678409 C13.4330682,29.5222727 14.4055682,29.2996591 14.7447727,29.0396591 C15.2646591,28.7607955 15.8360227,28.3181818 16.3247727,27.9042045 C16.9867045,27.34375 17.6115909,26.7404545 18.2670455,26.1721591 C20.9175,23.8735227 23.6805682,22.1009091 26.4015909,20.9010227 C26.9948864,20.6397727 27.5885227,20.4043182 28.1803409,20.1965909 C28.7701136,19.9890909 29.3570455,19.8096591 29.9384091,19.6586364 L29.9410227,19.6579545 C35.0046591,18.3421591 40.5071591,19.1947727 44.0301136,23.3256818 C47.4239773,27.3051136 48.04375,32.6319318 48.0955682,37.925 Z M11.5740909,33.4269318 C11.8901136,33.1315909 12.2125,32.7463636 12.5485227,32.3195455 C13.0181818,31.7232955 13.0652273,31.1460227 12.88,30.7292045 C12.8106818,30.5736364 12.7082955,30.44 12.5843182,30.3359091 C12.4615909,30.2331818 12.31625,30.1596591 12.1594318,30.1239773 C11.7763636,30.0363636 11.3182955,30.1731818 10.9298864,30.6467045 C10.4902273,31.1821591 9.88261364,32.0969318 9.75863636,32.9063636 C9.73545455,33.0581818 9.72931818,33.2056818 9.74511364,33.3438636 C9.76022727,33.4788636 9.79602273,33.6067045 9.85659091,33.7232955 L9.85693182,33.7248864 L9.85715909,33.7245455 C9.95647727,33.9146591 10.1232955,34.0147727 10.3461364,34.0231818 C10.3926136,34.0247727 10.4428409,34.0228409 10.4960227,34.0167045 C10.5485227,34.01125 10.6048864,34.0010227 10.6651136,33.9868182 L10.6651136,33.9871591 L10.6676136,33.9864773 C10.9678409,33.9146591 11.2677273,33.7129545 11.5740909,33.4269318 Z M42.1068182,37.925 L45.0261364,37.925 C45.1646591,34.4767045 44.6093182,30.9151136 43.0068182,27.8334091 C41.5492045,25.03 39.1394318,23.1243182 36.02,22.6636364 C31.46625,21.9917045 26.8709091,23.9198864 22.9864773,26.6795455 C18.7567045,29.6839773 15.2652273,33.7638636 12.2142045,37.925 L16.0702273,37.9198864 C19.5420455,32.9969318 27.5277273,25.5234091 33.4014773,25.4744318 C35.2734091,25.45875 37.1764773,25.89875 38.58375,27.1546591 C39.6036364,28.0646591 40.8395455,29.8321591 40.7789773,31.2664773 C40.7432955,32.1172727 39.9885227,32.3778409 39.265,32.1146591 C38.7029545,31.9097727 38.3057955,31.3956818 37.9125,30.8554545 C36.6343182,29.0998864 34.6410227,28.2407955 32.4542045,28.5401136 C29.8460227,28.8970455 26.6131818,30.9228409 24.5280682,32.7653409 C22.7297727,34.3546591 21.0792045,36.0940909 19.5217045,37.925 L23.6677273,37.925 C25.1875,36.0902273 26.7919318,34.5251136 28.8545455,33.2394318 C29.5077273,32.8326136 30.3114773,32.4022727 31.1563636,32.1120455 C33.2878409,31.3786364 35.4089773,31.5644318 36.3505682,34.2196591 C36.7209091,35.2634091 36.7751136,36.1788636 36.6671591,37.8570455 L36.6668182,37.925 L39.4863636,37.925 L39.4934091,37.8389773 C39.4956818,36.9203409 39.4756818,36.30125 39.5585227,35.3905682 C39.6296591,34.6055682 39.8735227,33.7922727 40.6021591,33.6959091 C42.1505682,33.37125 42.0761364,36.8176136 42.1068182,37.925 Z M22.2343182,46.8373864 L19.9434091,46.8373864 L19.3761364,48.8345455 L17.5503409,48.8345455 L19.9659091,41.1871591 L22.2797727,41.1871591 L24.7636364,48.8345455 L22.8579545,48.8345455 L22.2343182,46.8373864 Z M20.2043182,45.54375 L21.9621591,45.54375 C21.5007955,44.0501136 21.2022727,43.0251136 21.0660227,42.4692045 L21.0434091,42.4692045 L20.6806818,43.9215909 L20.2043182,45.54375 Z M13.8198864,46.8373864 L11.5289773,46.8373864 L10.9617045,48.8345455 L9.13602273,48.8345455 L11.5515909,41.1871591 L13.865,41.1871591 L16.3492045,48.8345455 L14.4435227,48.8345455 L13.8198864,46.8373864 Z M11.7898864,45.54375 L13.5473864,45.54375 C13.0864773,44.0501136 12.7878409,43.0251136 12.6519318,42.4692045 L12.6290909,42.4692045 L12.2663636,43.9215909 L11.7898864,45.54375 Z M26.5090909,48.8003409 L26.5090909,41.2888636 C27.2651136,41.1757955 28.0743182,41.1192045 28.9363636,41.1192045 C30.5659091,41.1192045 31.7357955,41.4589773 32.4448864,42.1421591 C33.1531818,42.8247727 33.5071591,43.7170455 33.5071591,44.8177273 C33.5071591,46.11875 33.1045455,47.1270455 32.2972727,47.8418182 C31.4901136,48.5565909 30.2444318,48.91375 28.5620455,48.91375 C27.7834091,48.91375 27.0989773,48.8761364 26.5090909,48.8003409 Z M28.2672727,42.5373864 L28.2672727,47.5180682 C28.3655682,47.5409091 28.5775,47.5525 28.9025,47.5525 C29.7754545,47.5525 30.4525,47.3215909 30.9305682,46.8619318 C31.4088636,46.4025 31.6469318,45.7444318 31.6469318,44.8860227 C31.6469318,44.0990909 31.4295455,43.4998864 30.9930682,43.0876136 C30.5565909,42.6753409 29.9268182,42.4692045 29.1063636,42.4692045 C28.7623864,42.4692045 28.4827273,42.4920455 28.2672727,42.5373864 Z M35.3886364,41.1871591 L37.1468182,41.1871591 L37.1468182,44.1254545 L40.1521591,44.1254545 L40.1521591,41.1871591 L41.91,41.1871591 L41.91,48.8345455 L40.1521591,48.8345455 L40.1521591,45.64625 L37.1468182,45.64625 L37.1468182,48.8345455 L35.3886364,48.8345455 L35.3886364,41.1871591 Z M48.2834091,46.8373864 L45.9925,46.8373864 L45.4252273,48.8345455 L43.5992045,48.8345455 L46.0147727,41.1871591 L48.3285227,41.1871591 L50.8120455,48.8345455 L48.9067045,48.8345455 L48.2834091,46.8373864 Z M46.2534091,45.54375 L48.0109091,45.54375 C47.55,44.0501136 47.2510227,43.0251136 47.1151136,42.4692045 L47.0925,42.4692045 L46.7295455,43.9215909 L46.2534091,45.54375 Z M56.6978409,46.8373864 L54.4069318,46.8373864 L53.8396591,48.8345455 L52.0138636,48.8345455 L54.4294318,41.1871591 L56.7431818,41.1871591 L59.2267045,48.8345455 L57.3214773,48.8345455 L56.6978409,46.8373864 Z M54.6675,45.54375 L56.4253409,45.54375 C55.9643182,44.0501136 55.6656818,43.0251136 55.5294318,42.4692045 L55.5069318,42.4692045 L55.1438636,43.9215909 L54.6675,45.54375 Z M60.9726136,48.8345455 L60.9726136,41.2888636 C61.6152273,41.1757955 62.4054545,41.1192045 63.3428409,41.1192045 C64.4998864,41.1192045 65.33125,41.3098864 65.8379545,41.6919318 C66.3446591,42.0738636 66.5978409,42.6205682 66.5978409,43.3314773 C66.5978409,43.755 66.47125,44.1370455 66.2161364,44.4792045 C65.9610227,44.8215909 65.6298864,45.0638636 65.2255682,45.2036364 L65.2255682,45.2490909 C65.7020455,45.4268182 66.0460227,45.8955682 66.2576136,46.6556818 C66.6468182,48.0251136 66.85875,48.7511364 66.8928409,48.8345455 L65.1009091,48.8345455 C64.9495455,48.5510227 64.7681818,47.9570455 64.5565909,47.0531818 C64.4505682,46.5993182 64.3069318,46.2817045 64.1255682,46.1001136 C63.9438636,45.9184091 63.6529545,45.8276136 63.2519318,45.8276136 L62.7078409,45.8276136 L62.7078409,48.8345455 L60.9726136,48.8345455 Z M62.7078409,42.4692045 L62.7078409,44.5684091 L63.4336364,44.5684091 C63.8723864,44.5684091 64.2179545,44.4679545 64.4714773,44.2692045 C64.7246591,44.0706818 64.8515909,43.8043182 64.8515909,43.4677273 C64.8515909,43.1307955 64.7378409,42.8698864 64.5092045,42.6865909 C64.2804545,42.5029545 63.9554545,42.4121591 63.5357955,42.4121591 C63.1234091,42.4121591 62.8477273,42.4314773 62.7078409,42.4692045 Z M31.5838636,37.9321591 L33.9236364,37.925 C34.2310227,35.9478409 33.6298864,34.4257955 31.6307955,34.7885227 C29.9457955,35.0948864 28.1361364,36.7692045 27.0429545,37.925 L30.1278409,37.9114773 C30.4718182,37.6853409 31.1444318,37.4276136 31.4207955,37.6196591 C31.5242045,37.6914773 31.5782955,37.7932955 31.5838636,37.9321591 Z M55.4579545,37.9265909 L55.4792045,37.9256818 L55.4898864,37.9256818 C55.7975,37.9427273 56.3321591,37.8006818 56.6404545,37.2804545 C56.7020455,37.1763636 56.7545455,37.0575 56.7944318,36.9226136 C56.8353409,36.7853409 56.8636364,36.6294318 56.8753409,36.4545455 L56.8759091,36.4545455 L56.8778409,36.4185227 C57.1117045,28.2398864 54.6078409,21.4695455 50.3571591,16.8694318 C49.5315909,15.9764773 48.6384091,15.1640909 47.6864773,14.4384091 C46.735,13.7136364 45.7251136,13.0761364 44.665,12.5330682 L44.665,12.5334091 L44.6482955,12.5246591 L44.6476136,12.5243182 C41.0744318,10.6976136 37.0225,9.99602273 33.0446591,10.3332955 C32.2689773,10.3989773 31.4975,10.5036364 30.7356818,10.6470455 C29.9719318,10.79 29.2139773,10.9730682 28.4679545,11.1932955 L28.4576136,11.1965909 C24.3667045,12.4070455 20.5605682,14.8097727 17.4582955,17.9627273 C16.8539773,18.5769318 16.2770455,19.2192045 15.7306818,19.8851136 C15.4592045,20.2159091 15.1947727,20.5531818 14.9386364,20.8955682 C17.1142045,19.0179545 19.4476136,17.3709091 21.8889773,16.0621591 C22.4388636,15.7673864 22.9919318,15.4906818 23.54625,15.2339773 C24.1015909,14.9769318 24.6643182,14.7369318 25.2319318,14.5160227 L25.2338636,14.5153409 L25.2354545,14.5146591 C27.3920455,13.67625 29.5180682,13.14125 31.6446591,12.9021591 C33.7713636,12.6631818 35.8992045,12.7202273 38.06,13.0638636 C39.5980682,13.30875 41.0988636,13.7113636 42.4511364,14.2751136 C42.7132955,14.3839773 42.9717045,14.5005682 43.2245455,14.6229545 C43.4738636,14.74375 43.7193182,14.8729545 43.9598864,15.0085227 L43.9605682,15.0085227 L43.9640909,15.0104545 L43.9640909,15.0107955 C48.7247727,17.6186364 52.0322727,22.9703409 53.4888636,29.0126136 C53.7729545,30.1909091 53.9868182,31.3946591 54.1272727,32.6071591 C54.2673864,33.8196591 54.3347727,35.0446591 54.3263636,36.2680682 L54.3263636,36.2686364 L54.3256818,36.3386364 C54.3498864,36.9934091 54.5740909,37.5406818 54.9580682,37.7871591 C55.0298864,37.8328409 55.1071591,37.8686364 55.1896591,37.8918182 L55.1903409,37.8918182 C55.2743182,37.9156818 55.3636364,37.9276136 55.4579545,37.9265909 Z" id="Fill-29" fill="#D32828"></path>
                </g>
            </g>
        </g>
    </g>
</svg>