<svg xmlns="http://www.w3.org/2000/svg" width="275" height="50" viewBox="0 0 275 50">
    <g fill="none" fill-rule="evenodd">
        <path fill="#151616" d="M17.145.214C17.6.09 18.152.134 18.43.55c.239.254.416.591.318.966.494.518.592 1.25.536 1.925.436.297.75.75.81 1.248l.082.08c.393-.299.908-.479 1.444-.356a2.313 2.313 0 0 1 2.217-1.15c.696.137 1.366.535 1.764 1.207.216.22.08.614.394.754.696.338 1.722.16 2.06 1.03.16.576.04 1.246.577 1.682.375.418.652.936.555 1.508-.064.455-.555.596-.813.952-.159.277-.376.494-.597.732 0 .32-.179.578-.375.83-.16.222-.534.043-.577.34-.055.338-.375.633-.69.711a.949.949 0 0 1-.736-.214c-.394-.221-.135-.874-.67-.874-.436.395.258.776.337 1.15-.06.474.512.652.535 1.089-.277.517.358.93.118 1.408.319.591.196 1.287-.199 1.821l-.06.972c-.117.357-.633.652-.338 1.09-.018.356-.313.633-.59.835-.024.356-.203.652-.478.91.023.375-.258.694-.512.972-.06.455-.22.848-.516 1.187.08 1.746.179 3.35-.318 5.011.553.836.417 1.964.988 2.798.597.019 1.39-.202 1.685.511l.197.56c.257.177.533.394.656.67 0 .277-.017.576-.196.794.056.24.356.319.454.534-.023.396.395.597.51.93.4.24.462.714.738 1.051.136.3.136.675.217 1.013a.71.71 0 0 1 .319.612c-.123.318-.221.675-.579.816-.135.787-.276 1.582-.769 2.238-.237 1.17-1.505 1.428-2.476 1.642-.22.24.1.597-.098.855-.319.849-1.29 1.01-2.102 1.127l-3.048.1-6.042-.12c-2.017.062-4.1-.018-6.115-.159-.48-.099-1.07-.413-1.15-.948a1.894 1.894 0 0 1-.041-.755l-.1-.081c-.774-.036-1.605-.036-2.236-.472l-.217-.475c-.318-.634-.693-1.272-.656-1.986 0-.313 0-.788-.413-.892-.1-.333-.16-.69-.06-.99.711-.215.178-.91.337-1.384.018-.553.234-1.089.356-1.648.118-.333.535-.098.632-.436 0-.395.616-.314.518-.732-.222-.296-.203-.733-.06-1.051.134-.196.355-.316.532-.455.062-.412.217-.892.673-1.028.356-.061.753.16 1.05-.08.337-.357.196-.892.257-1.348-.136-1.05.578-1.923.32-2.895-.222-1.225-.773-2.416-.617-3.683a.88.88 0 0 0 0-.456c-.257-.197-.534-.395-.632-.695-.2-.258.217-.59-.06-.812-.555.061-.475-.554-.634-.873-.418-.356-.773-.768-.872-1.286-.24-.179-.117-.516-.196-.774-.516-.554-.082-1.286-.438-1.882-.099-.314.02-.653.24-.892.155-.376-.122-.812.136-1.15.357-.276.301-.69.375-1.069.06-.235.436-.333.337-.634-.056-.179-.018-.395-.135-.535-.302.24-.276.756-.713.872-.24.16-.517.02-.713-.098-.257-.198-.398-.474-.496-.757a1.114 1.114 0 0 1-.733-.65c-.159-.24.06-.714-.337-.775-.338-.077-.572-.414-.653-.733C.53 9.604.25 9.683.194 9.426a.826.826 0 0 1-.16-.774c.16-.512.676-.892.99-1.328-.117-.493-.018-1.09.418-1.428.534-.313 1.205-.453 1.621-1.028-.017-.454.418-.731.555-1.15.196-.276.515-.393.871-.357l.26.081c.256-.356.614-.577 1.068-.498.493 0 .77.4 1.127.697.435-.022.815.098 1.19.257.374-.02.714.097.99.295.136-.198.178-.437.276-.652l.437-.774c-.179-.59-.4-1.306-.019-1.883.356-.553 1.126-.136 1.544-.536.239-.017.498 0 .712.043.278-.22.675-.177 1.008-.197.257-.16.633-.179.874 0 .257-.121.577-.08.83 0 .3-.121.613-.121.914 0 .396-.281 1.045-.24 1.445.02zm3.822 34.218c-.098.22-.276.479-.14.732.198.258.455 0 .675-.02.118-.078.118-.257.079-.356v-.235c.155-.06.217.137.315.235.14.159-.117.479.16.498.177.079.06.259 0 .357l-.062.177.258-.121c-.019-.179.297-.235.179-.413-.136-.02-.296-.142-.314-.3.018-.118-.08-.254.018-.357l.83.042c.142.117-.037.357.22.357.155-.061-.043-.24.1-.296.178.099.196.432.493.314.121.141.374.06.416.295 0 .105 0 .204.117.26l.179.098c0 .14-.277.08-.196.281.097.137.196-.08.276.076-.02.32.116.657.04 1.013-.077.118-.316-.042-.28.197l.121.14.198.02-.079.16c-.295-.08-.695.036-.93-.203l.099-.196-.14-.118c.238-.22-.136-.478.098-.694-.056-.24-.332 0-.473-.141-.117-.117-.376-.178-.358-.395l-.14-.036c-.076.056-.057.253-.196.196-.057-.08.04-.179-.08-.24-.456.178-.155.733-.59.954-.1.275-.757-.043-.42.394l-.059.197c.535-.235.89-.83 1.448-1.089.197.14.511.08.554.4.08.412-.497.572-.399.971.158.135.24.633.535.294.397-.275.916-.04 1.29.16l.16.18c.037-.203-.202-.38-.18-.615a14.13 14.13 0 0 1 0-1.906l.076-.056c.436.294-.019.971.4 1.304.135-.038.077-.253.059-.356-.08-.315-.023-.672-.159-.967.038-.202-.06-.437.136-.535.259.117.259.412.259.67l.12.875.076.017c.023-.417-.038-.891.023-1.327.118-.057.136.122.197.177.099.695.099 1.372.277 2.062.039 1.093.019 2.14-.215 3.172l-.104-.159c0-.317.042-.671-.056-.954-.122-.017-.122.122-.141.202l-.057 1.107h-.078c-.16-.437-.1-.872-.16-1.31h-.081c-.14.26.118.616-.097.837-.22-.258-.099-.675-.02-.972.358-.14.098-.455.156-.694l-.374-.455-.02.036c.238.4.179.936-.037 1.33-.24.14-.222.398-.338.576l-.479.554-.253.855c-.16.075-.358.137-.516.075-.142-.216.056-.434.158-.635.198-.435.358-.89.734-1.247.055-.155-.08-.297.019-.474-.16.036-.297.198-.457.276-.238.16-.576.1-.828.043l-.08-.104c.135-.493.49-1.107.135-1.622-.178.08-.055.398-.136.553 0 .398-.357.657-.436 1.013.216.258.057.634.017.911-.098.24-.196.474-.196.774.098.198-.041.375-.14.554-.117.079-.357.06-.473 0-.16-.18.116-.319.08-.517 0-.177-.18-.314-.044-.474.1 0 .1.198.222.137.196-.457-.4-.672-.32-1.09h-.117c-.14.118 0 .22-.019.376-.121.22-.099.456-.178.677-.122.238-.436.393-.398.712-.1.277-.395.258-.616.199-.097-.24.22-.419.32-.635.06-.198.16-.418.276-.597.02-.215 0-.511.178-.652.159.038.32-.019.375-.158l-.056-.12c-.103.02-.2.063-.319.02v-.257l.08-.136c-.14-.062-.436.098-.436-.18.062-.08.216-.177.098-.275-.06-.08-.196 0-.258-.124.1-.134.301-.196.358-.356-.119-.117-.277.198-.395 0 .057-.216.357-.178.375-.355-.14-.08-.296.157-.395-.057.04-.202.358-.142.377-.357-.123-.043-.338.215-.418-.043.06-.296.497-.098.614-.376 0-.179-.178 0-.258-.098-.118.018-.196.278-.338.118.16-.08.122-.297.043-.417-.043-.1-.221-.1-.16-.217l.081-.08c-.1-.216-.16-.536-.08-.774.08-.118.295-.235.196-.413-.216-.22-.037-.554 0-.812l.278-.14.121.098zm-.693.141l-.16.197c.14.117.179.296.04.436.298.179-.021.437 0 .633 0 .178.1.499-.078.616l-.16-.043c-.219-.356-.355-.733-.632-1.047l.117-.177c-.136-.044-.357 0-.395-.203 0-.178-.06-.356-.237-.412l.077-.141c.475.042 1.01-.08 1.428.141zm1.167.197c-.037.098-.08.239-.198.276-.12.042-.196-.1-.196-.197 0-.117.019-.276.156-.32.12 0 .2.142.238.24zm5.051.516c-.023.16-.023.296.098.413.1.318.019.638.217.873-.037.159-.116.376.018.536l-.055.276c.158.934.019 1.806-.198 2.697h-.042c-.061-1.19-.061-2.494-.257-3.645-.04-.498-.119-.972-.162-1.451l.18-.098c-.037.16.122.301.201.399zm.83.99c.142.972.218 2.041-.018 2.99h-.061c.018-.99-.038-1.981-.08-3.032-.037-.217.221-.076.16.042zm-6.95.85l-.196.04.017-.098.18.058zm-.16.577c-.216.196.16.395-.036.597.037.116.233.276.055.41.142.279.399.52.338.874.099.039.24.141.257.258-.037.417-.08.852-.394 1.15v.279c-.098.197-.417 0-.436.257 0 .098 0 .277-.14.296-.75.06-1.506.06-2.238.06l-.038-.08c.197-.018.414-.356.614-.097l.18-.099c-.042-.14-.258-.32 0-.4l.276-.018c.098-.159-.042-.437.258-.454.235-.118.117-.578.493-.535.158-.1-.019-.199 0-.32.196-.199.08-.59.398-.672v-.238c.216-.199-.023-.474.197-.671.057-.3-.197-.677.057-.935.123.08.14.221.16.338zm7.804.038l-.121.202c-.178-.063-.038-.282-.056-.38.136-.137.136.122.177.178zm-3.92 2.182c-.08.259-.633.16-.479.554-.276.177 0 .99-.554.614l-.018.16.14.137-.337.478c.099.155.413.333.215.572l-.215.02c-.06-.179-.277-.395-.099-.555-.178-.1.039-.277-.139-.356l-.04-.14.198-.18c-.042-.156-.437-.178-.158-.394l.158.019-.1-.258c.02-.235-.04-.512.16-.633.334.121.893.239 1.169-.1l.099.062zm.99 1.783c.06.098.295.12.196.258-.177.1-.314-.319-.491-.201 0 .12.177.258.018.338-.141-.038-.222-.198-.277-.316.019-.38.412-.737.117-1.092 0-.156.142-.296.258-.358.474.358.017.892.179 1.37zm-3.645-.516l-.037-.02c-.024-.158.055-.298.136-.435.04.117-.02.336-.1.455zm2.95.258l-.117.16c-.22-.098 0-.337-.018-.536-.025-.098-.025-.258.098-.319.257.14.08.498.037.695zm.08.596l-.1.178-.177-.22.06-.119.217.16zm-.436.155l-.061.141c-.116-.062-.235-.197-.235-.357l.057-.08c.14.038.201.179.24.296zm-.534-.136l-.098.197-.162-.24c0-.176.24-.056.26.043zm-.991.098v.315l-.099.079a.794.794 0 0 1-.316-.534c.139-.137.336 0 .415.14zm-1.187.161c0 .117-.042.296-.177.314-.356.06-.24-.357-.498-.493l.098-.18c.24.039.456.138.577.359zm.573-.1c.02.136.02.296-.098.376-.217-.122-.217-.4-.357-.578.16-.097.375.063.455.203zm-2.594.136c-.037.142-.06.376-.258.4-.258-.103-.258-.418-.355-.658.116-.158.355-.017.472.06l.141.198zm-1.345.062c.06.134-.02.276-.16.315-.137.08-.276-.057-.297-.18-.017-.135 0-.313-.078-.436.06-.136.238 0 .314.062l.22.239zm2.02-.043c0 .14-.079.259-.22.278-.239-.076-.215-.357-.356-.512l.061-.08c.178.038.394.136.516.314zm-1.425-.019c.036.142.036.32-.14.376-.322-.018-.118-.438-.375-.573.053-.16.277 0 .393.062l.122.135zm-1.248.019c.019.14-.023.301-.16.358-.098.041-.22-.04-.238-.156-.019-.14-.136-.38 0-.478.159.06.336.098.398.276zm3.246 0l-.098.24c-.16.038-.24-.141-.276-.24.017-.098-.062-.234.077-.276.137.042.217.159.297.276zm-3.841.043l-.062.258-.276.057c-.119-.117-.099-.296-.119-.456.138-.178.42-.056.457.14zm-.555.038c0 .14-.04.276-.196.317-.16 0-.38-.017-.38-.22-.037-.155.08-.233.22-.259a.374.374 0 0 1 .356.162zm-.773.06c-.062.08-.062.217-.179.24-.178-.043-.376-.062-.474-.24l.118-.196c.178.055.456-.062.535.196zm.338.493l-.08.121-.258-.08.16-.116.178.075zm.534.024l-.08.073-.098-.073c.02-.1.159-.122.178 0zm-1.327 0l-.178.056.018-.136.16.08zm2.022.018l-.141.1-.117-.063.098-.116.16.079zm.61 0l-.099.08-.118-.08h.216zm3.605.494c.04.14.02.356-.177.397-.117.039-.258-.04-.24-.178.02-.121-.097-.3.044-.376.136-.104.373-.022.373.157zm-.711.023c-.021.155-.1.413-.319.413-.118.018-.198-.08-.216-.18 0-.116-.1-.374.098-.412.161-.06.394 0 .437.179zm-.83-.023c.018.14-.062.257-.123.397-.098.039-.215.1-.339.039-.098-.137-.196-.315-.196-.494.179-.099.516-.177.658.058zm3.54.023l-.136.177-.098-.14.116-.178.118.14zm-4.357.018c0 .178 0 .395-.197.456a.354.354 0 0 1-.315-.296c-.023-.123-.023-.282.118-.302.159 0 .337-.036.394.142zm-.67 0c.037.137-.02.277-.099.395h-.26c-.098-.137-.196-.296-.196-.436.137-.137.456-.137.554.041zm4.137.038c.024.14-.137.258-.259.317l-.154-.098c.056-.12.019-.298.135-.355.123 0 .22.018.278.136zm-10.395-1.723c0 .258-.374.296-.301.597-.098.136-.253.037-.374 0l-.08-.32c.179-.216.479-.277.755-.277zm.91.06c-.14.156-.375.316-.416.556-.098.099-.26.08-.378.017-.079-.06-.196-.159-.115-.276.215-.197.515-.217.75-.357l.16.06zm-6.772-1.092l-.16.22-.136-.08c-.042-.116.037-.197.136-.24l.16.1zm.415.06l-.097.16-.16-.14c0-.155.257-.18.257-.02zm.376.02l-.079.098-.098-.098.06-.118.117.118zm.358 0l-.118.08.018-.16.1.08zm-.318.417l-.08.178-.138-.078.062-.161.156.061zm2.1.535c-.141.179.098.375-.079.517-.141-.02-.217-.16-.296-.277-.024-.16.155-.24.257-.3l.119.06zm-1.247 0c-.099.14-.099.296-.178.437a.591.591 0 0 1-.419-.24c.122-.159.419-.275.597-.197zm2.476.06c-.178.18.178.457-.122.512-.117-.017-.258-.117-.279-.252-.037-.14.124-.3.26-.339l.14.08zm.792 0c-.28.137 0 .812-.477.495-.1-.1-.18-.235-.136-.358.177-.099.356-.177.553-.216l.06.08zm-5.881 0l-.062.08-.018-.177.08.098zm.67.156l-.178.042-.019-.238.198.196zm.498 0h-.14l.018-.216c.141.02.08.141.122.216zm6.951-.037c0 .14.056.436-.121.535-.18.061-.335-.038-.358-.197 0-.178.178-.26.3-.319l.179-.019zm.652.14c-.038.178.117.396-.119.456-.238.037-.257-.22-.297-.356l.157-.203.26.104zm.65.216c.044.117-.018.277-.134.258-.141 0-.278-.018-.337-.179.036-.079-.08-.22.036-.295.179.02.38.02.435.216zm-.946.615l-.201.118-.118-.08c.06-.117.258-.156.319-.038zm.633 0l-.14.08-.098-.08c.042-.118.22-.06.238 0zm-1.406.08h-.178l.036-.122.142.122zm-.813.357c-.018.155.08.333-.061.454l-.313.057c-.098-.155-.238-.376-.14-.555.14-.097.435-.16.514.044zm-3.484.413l-.197-.08c-.103-.098-.103-.253-.062-.377l.197-.055c.1.156.043.356.062.512zm.891-.02l-.121.118c-.217-.057-.217-.314-.235-.512 0-.12.136-.16.196-.099a.74.74 0 0 1 .16.493zm.872-.417c.02.179.117.417-.041.535a.232.232 0 0 1-.296-.155c0-.16-.16-.355.019-.478.117 0 .258-.02.318.098zm.868.081c0 .14.099.397-.098.454-.16 0-.357-.018-.375-.197-.02-.136-.081-.358.097-.414.142-.042.358-.022.376.157zm3.625-.057c.831.057 1.802-.061 2.655-.025.155.104.02.32-.023.46-.116.18-.315.038-.472-.022-.1-.057 0-.216-.137-.258-.179.103-.08.356-.338.4-.16 0-.376-.082-.376-.279l-.08-.079c-.16.038-.042.314-.257.314-.276.08-.498-.61-.577-.018l-.333-.02c-.08-.08-.062-.318-.24-.276-.037.136-.098.357-.296.357-.122.018-.299-.018-.318-.16l-.08-.118c-.16.057-.098.315-.315.278-.14-.043-.378 0-.398-.198l-.117-.2c-.275-.02 0 .398-.295.398-.179.018-.357-.018-.417-.198-.02-.159-.197-.356-.043-.477.817.12 1.627.06 2.457.12zM15.54.687c.019.34-.062.713-.178 1.033l-.178.037a1.691 1.691 0 0 1-.199-1.13c.138-.235.475-.137.555.06zM16.567.59c-.333.356-.196.929-.634 1.229-.134-.041-.153-.22-.196-.356.02-.277-.019-.535.16-.756.178-.159.474-.333.67-.117zm-2.65.215c.08.338-.06.658-.14.953h-.178c-.118-.338-.455-.615-.357-.99L13.48.59c.178-.02.376.018.436.215zm.812.123c.019.258.08.652-.16.793-.214-.103-.297-.356-.375-.577-.019-.117-.042-.236.02-.338.098-.1.196-.197.337-.216.136.019.178.196.178.338zM13.045.903c.038.318.24.816-.08 1.012A1.148 1.148 0 0 1 12.49.884l.18-.198a.356.356 0 0 1 .375.217zm5.028.024c.1.118.121.295.062.437-.198.253-.517.313-.775.511.1.417.535.3.732.594l.08-.036c-.197-.178-.315-.46-.235-.713.08-.123.257-.081.356-.062.155.18.099.438.236.615.059.278.398.475.16.771-.119.22-.419.397-.357.655.159.12.276-.258.375 0 .2.278.558.518.613.874.277.395-.197.691-.177 1.07.14.099.337.177.356.376l-.117.356c.337.339.036.794.08 1.206l-.178.098c0 .124.08.302-.019.4-.318.08-.259-.4-.517-.474-.041.276.199.511.235.812-.018.117.023.296-.116.376-.732-.099-.518-.912-.732-1.367 0-.121.017-.281.135-.356.08-.023.141.179.22.037-.098-.258-.276-.572-.098-.873.338-.313.555-.769.377-1.266l-.536-.954c-.019-.553.116-1.167-.456-1.483-.336-.16-.73-.22-.97-.558-.019-.179.116-.334.258-.413.136-.16.436.098.492-.178l-.215-.197c-.216-.025-.394.074-.535.253-.098.103-.117.3-.259.319-.098-.14-.056-.357 0-.498.24-.314.554-.592.934-.572.235 0 .474.019.59.24zm-5.623.59l.177.5c-.314.035-.354-.378-.613-.52-.1-.036-.198-.196-.315-.115l-.019.018c.18.16.413.357.455.616-.355.16-.398-.419-.736-.456-.135-.018-.179.137-.277.177-.098.04-.257-.017-.314.1.037.136.216.06.257.215.057.18-.2.26-.12.381.177-.061.417-.043.477-.258 0-.159-.178-.278-.06-.418.14.06.214.179.258.32.24.671-.713.81-.713 1.426.018.455.038.869-.278 1.225-.177.634.137 1.112.375 1.63.039.252-.318.392-.355.65-.197.179-.436.24-.695.259-.117-.062-.277-.098-.314-.258 0-.24.395-.376.177-.634-.218-.3-.337-.714-.16-1.07.081-.141.218-.04.279.057.197.122.079.299.14.478.099.1.177.26.314.316.118-.081.16-.234.141-.316-.141-.597-1.013-.775-.914-1.468 0-.395.238-.69.398-1.029l.198-.042c.195.178.195.48.239.713a.52.52 0 0 0 .197-.474c0-.338-.24-.595-.278-.928.118-.16.24-.32.258-.516-.14-.142-.376.276-.436-.08-.08-.358 0-.732.376-.856.276-.257.811.26.874-.252.416-.183.83.234 1.007.61zM17.6 2.79c.375.432.239 1.03.553 1.465.16.276.376.572.24.874-.302.16-.596.412-.715.712l-.256-.019c-.24-.238-.222-.577-.499-.793.24-.22.558-.436.755-.712l-.059-.098c-.437.073-.732.51-1.207.43-.257-.155-.735.062-.81-.296.019-.473.253-.97.711-1.168.574-.24.912.357 1.306.675l.059-.14c-.256-.357-.593-.713-1.007-.872-.576-.119-1.05.197-1.351.656-.253.43-.216.99.062 1.427.041.118 0 .314-.16.334-.375 0-.733.06-1.07-.08-.216-.394.178-.731.16-1.127.018-.498-.418-.91-.83-1.17-.3-.098-.634-.159-.911 0l-.872.87.055.078c.437-.294.874-1.069 1.488-.632.24.179.417.438.376.713h-.179c-.178-.197-.277-.634-.651-.572-.436.08-.713.535-1.089.713l.08.099c.474-.062.849-.874 1.365-.357.06.179.159.375.295.517-.136.196-.376.234-.59.294-.497.038-.835-.336-1.291-.356l-.036.08c.471.097.768.554 1.284.492l.061.08-.497.456c.042.398-.537.498-.436.892.042.259.299.534.121.773-.16-.018-.275-.314-.435-.16.553.381-.16 1.194.553 1.41.258.06.553.06.694.356.019.178.036.436-.141.577-.314-.103-.259-.536-.572-.614-.24.016-.515 0-.596-.26-.215-.435.196-1.031-.258-1.407-.08-.376.48-.376.48-.732-.062-.756-1.488-.953-.813-1.825.314-.295.376-.714.314-1.109.578-.853 1.543-1.009 2.4-1.347.452-.02.948-.122 1.405-.02.89.18 1.758.396 2.513.893zm-.061 1.225l-.118.1c-.295-.038-.454-.375-.75-.433-.201-.023-.357.118-.437.277-.098.118-.04.437-.3.357-.057-.178.1-.357.162-.516.115-.159.275-.32.452-.357.475-.098.676.314.991.572zM6.966 5.324c.02.277-.16.497-.356.652.056.16.179.3.117.48-.036.117-.197 0-.258.097.141.235.296.494.296.771 0 .2-.117.38-.235.497-.197-.08-.376-.338-.576-.217.275.255.535.572.557.95-.022.319-.06.693-.339.852-.355-.098.12-.417-.08-.656-.275-.413-1.265-.055-.99-.813.218-.098.555.28.617-.155-.08-.337-.48-.416-.773-.458l-.08-.1c.116-.197.418-.079.595-.197.233-.117.412-.374.493-.613.062-.438-.118-.894-.457-1.207-.177-.099-.356-.221-.55-.24v.118c.256.061.55.202.674.478a1.71 1.71 0 0 1-.062.93c-.196.197-.473.374-.755.338-.135-.258.282-.339.337-.554.044-.202.098-.381-.08-.535-.373-.417-1.167 0-1.382-.634-.082-.22-.098-.535.099-.713.098-.141.257-.141.417-.16.136-.018.196.258.314.138.042-.218-.492-.36-.178-.514.238.02.436.278.651.155.22-.295.497-.473.854-.492.83.217.953 1.108 1.13 1.803zm17.505-1.21c.08.16.117.317.019.477l-.08.235c.22.08.337-.276.497-.355.037.177-.08.319-.06.478.16-.019.179-.239.318-.276.136.078.159.233.159.412a.908.908 0 0 1-.478.576c-.258.038-.732-.318-.83.137.136.435.337.892.178 1.37-.259.236-.693.217-.854.573 0 .222-.018.497.221.614.199-.036.08-.338.217-.454.157-.098.374-.297.516-.16.017.295-.142.535-.118.83.018.222-.122.382-.277.48-.358.257-.855.216-1.13.615 0 .178.177.214.295.258l.12.037c-.059.16-.238.16-.355.216-.3-.019-.356-.356-.478-.573-.038-.357-.02-.775.299-.99.296.038.492.437.83.24.119-.061.298-.202.24-.32-.281-.08-.636.062-.774-.277-.117-.258-.08-.596-.018-.83.356-.24.909-.437.971-.935-.08-.099.057-.277-.062-.313-.14.099-.159.374-.398.394-.255-.02-.473.117-.65.294-.16.222-.16.499-.12.757-.14.159-.356.056-.515.019-.179-.08-.179-.277-.16-.456.1-.516.615-.855.615-1.407l-.038-.037c-.14.037-.178.454-.398.233-.234-.216.06-.533-.198-.75-.115.136-.14.394-.115.595-.062.297-.16.634-.499.77-.314-.038-.712-.057-.891.24v.276c-.08.142-.197.038-.277-.018-.177-.16-.337-.339-.276-.577.08-.119.276 0 .393-.08.16-.116.122-.395.38-.433.136 0 .313-.042.394.136h.08c.295-.214.474-.515.517-.848l-.043-.043c-.16.062-.117.276-.296.297-.416.102-.89.12-1.088.558-.16-.042-.257.08-.38.08-.074-.381.201-.736.534-.971.24-.24.536-.278.817-.418.178.32.573-.039.733.32.294-.124.196-.537.374-.777.258-.417.732-.417 1.088-.652.438-.08.756.156 1.05.432zM8.036 4.61c-.24.02-.497.16-.754.062-.118-.122-.18-.3-.118-.455.276-.177.553.117.81.196l.062.197zm1.07.118c.078.16.196.337.117.497-.296-.197-.677-.417-.793-.772l.061-.1c.234.042.455.177.615.375zm-.08.615c.436.197.136.755.294 1.112.199.234-.116.413-.036.671-.042.32.116.577.08.855l-.08.08c-.24-.259-.38-.615-.657-.893.06-.159.258-.098.356-.24.24-.158.24-.436.141-.674-.177-.413-.497-.911-.971-1.07l-.038.04c.236.26.61.494.672.851.061.179.14.38.061.557-.081.138-.239.156-.34.156h-.256c-.079.14.1.282.14.436.217.16.296.42.316.658 0 .197-.217.334-.378.412-.215-.078.021-.356-.116-.511-.2-.201-.478-.239-.712-.357l-.455-.515c.073-.358.098-.715-.124-1.034l.082-.056c.14.056.079.235.177.335.32.397.774.533 1.267.496.16-.042.06-.22.023-.295-.398-.436-1.408.018-1.37-.837.16-.196 0-.57.3-.694.59 0 1.127.221 1.624.517zm4.377-.315c.018.179-.119.456.036.615.32.279.793.155 1.068.456.32.098.597-.042.837-.203.197.24.57.203.829.104.198-.06.437-.258.474-.46l.08-.253c.16.018.257.154.276.296.062.257-.036.492-.232.671-.438.3-1.053.16-1.47-.057.098.395.555.338.893.395.453.04.773-.315 1.11-.572.117.037.056.214.038.296-.079.237-.296.472-.554.515-.652.036-1.345.061-1.802-.437l-.078.038c.412.637 1.228.737 1.935.637.42-.042.696-.416.892-.753.142.016.302.116.357.257.06.258-.215.417-.215.652-.02.4.319.952-.178 1.169-.178.04-.394-.02-.475.202-.043.154.018.375-.178.435-.098-.158-.275-.419-.14-.615.535-.2.712-.773.772-1.247.057-.16.161-.302.179-.437l-.06-.018c-.337.534-.874 1.008-1.586.868-.59 0-1.143-.413-1.365-.95l-.08-.059c-.435.596-1.07.99-1.764 1.15-.116-.042-.314.018-.374-.119.16-.022.374-.06.515-.177-.06-.16-.257.018-.374-.08-.14-.08-.417-.201-.376-.38.431.102 1.046.238 1.465-.019l.632-.413-.06-.08c-.513.259-1.169.614-1.742.259-.237-.16-.473-.419-.435-.694l.08-.044c.276.18.455.577.793.616.393.08.872.018 1.125-.297-.057-.435-.653-.061-.848-.417-.198-.217-.32-.492-.22-.793-.021-.135.28-.295.22-.057zm2.968.197a.66.66 0 0 1-.235.596.502.502 0 0 1-.497.075l-.06-.057c.097-.157.354-.197.379-.435 0-.179-.043-.356.138-.437.115.019.237.141.275.258zm-12.415.596c.215.119.571.155.632.433.038.238-.239.299-.393.378-.282.1-.598.118-.835.28v.036c.336.018.73-.02 1.012.24.179.356.714.633.414 1.106-.297.456-.098 1.112.06 1.569.02.196-.177.295-.197.455-.08.296-.023.553 0 .873-.178.197-.534.098-.658.412.044.356-.453.222-.453.56a.58.58 0 0 1-.534.097c-.137-.06-.119-.277-.08-.398l.08-.235c-.08-.099-.438.1-.259-.16.099-.08.24-.22.38-.097.253-.141.732.135.788-.301l.122-.099c-.178-.313.393-.493.116-.849a3.094 3.094 0 0 1-.87-1.31h.257c.375.043.676-.216.811-.517l-.056-.098c-.16.258-.456.358-.773.3l-.16-.062c.042-.098.258-.079.196-.218-.196-.118-.392.061-.591-.039-.454-.079-.792.24-1.13.518l-.158-.062c.12-.314.557-.376.613-.732.042-.24.042-.498.258-.652.141-.08.337-.08.456-.202a.933.933 0 0 0-.714-.654c-.136-.06-.295 0-.395.062-.238.155-.196.457-.218.653 0 .117.04.216.12.295.117.043.138-.136.258-.098.1.196-.06.417-.06.615-.198.296-.633.435-.732.81-.06.223-.198.519-.479.537-.197-.198-.533-.455-.296-.771.199-.595 1.189-.852.954-1.584-.042-.18-.042-.378.056-.536.3-.357.773-.338 1.13-.555.295-.103.376-.577.712-.46l.616.46zm9.188.216c.16.12.337.24.553.258l-.08.099c-.313.038-.572-.038-.769-.258a.596.596 0 0 1-.202-.573l.124-.06.374.534zm14.258.099c.137.119.296.258.277.438-.215.077-.516-.241-.676.077-.312.358-.374.795-.712 1.152.061.257.4.178.558.355.137.216.234.516.178.75.1.161.313.044.437.1.254.24.711.1.83.517.038.117.116.238.038.356l-.056.042c-.18-.24-.479-.437-.756-.577l.122.24c.098.177.373.315.315.534l-.062.058c-.333-.18-.395-.672-.83-.653-.24-.257-.436-.672-.81-.714l-.535-.018c-.338.098-.677.315-1.053.215-.215-.215.019-.492-.057-.752a.795.795 0 0 1 .076-.633c.22-.197.558-.158.835-.158.258-.02.474.416.653.116v-.057c-.339-.12-.535-.613-.952-.417-.118.098-.333.098-.474.02-.178-.138-.215-.377-.241-.615-.017-.257.24-.278.4-.356.239-.156.394-.414.554-.593.613.314 1.266.456 1.941.573zm-5.604.933c-.039.218-.019.495-.197.653-.34.179-1.033-.098-1.05.493-.063.122-.18.024-.24 0-.135-.179-.179-.394-.08-.59.221-.123.46-.3.418-.598.116-.177.257.042.398.042.334 0 .573-.22.813-.46.234.123-.08.302-.062.46zM2.492 6.948l-.08.08c-.14-.06-.277-.039-.357-.16l.08-.118c.155-.06.297.062.357.198zm24.928.239c.161.474-.435.457-.631.751-.099-.037-.259.025-.32-.117.3-.217.38-.634.755-.794l.196.16zm.34.16c.215.177.215.456.415.634.315.314.715.632.715 1.088-.16.08-.302.395-.516.277-.142-.216-.258-.516-.535-.572-.437.154-.357-.4-.658-.558l-.116-.179c.221-.075.375.16.554.22.098-.116-.1-.24-.1-.376.043-.202.22-.379.142-.576l.099-.136v.178zm-16.952-.08c.08.297.177.634.136.95l.122-.04c.038-.24.057-.455.116-.694.279.376 0 .854-.018 1.267-.06.202-.257.221-.356.357-.437.041-.4-.536-.774-.672-.217-.117-.217-.417-.26-.632.241-.278.733-.179.936-.578l.098.042zm9.286.216l-.019.32c-.398.314.118.75-.275 1.05-.123.136-.221.296-.24.455l.062.057c.178-.08.214-.456.431-.357 0 .517-.056.972-.431 1.347-.043.28-.18.64.117.793.018-.216-.042-.474.06-.671.198-.159.234-.553.534-.497.198.258-.04.713.02 1.031-.278.34-.577.794-.376 1.188.138-.06.098-.276.236-.394.14-.14.298-.318.454-.417.16.178.061.454.024.676-.123.276-.597.51-.339.91l.08.376.136-.32c.197-.135.222-.456.479-.492.253.534-.46.91-.48 1.464h-.176c-.215-.235-.16-.572-.276-.85l-.418-.497c.22-.535-.156-1.01-.297-1.483.062-.258-.178-.4-.215-.613.277-.5-.024-1.113.375-1.551.337-.492 0-1.168.417-1.624l.117.099zm-12.377.554c.118.024.258.121.297.24-.039.158.06.276.2.357.156.06.395 0 .453.219.02.278-.176.535-.415.653-.26-.1-.137-.535-.473-.577-.302-.076-.659-.1-.794-.413-.099-.3.197-.517.16-.837.178-.177.197.16.314.202l.258.156zm7.762 0a.385.385 0 0 1-.294.398c-.08.062-.26-.019-.297.118.058.121.235.16.333.08.202-.117.337-.357.535-.436.121.098-.019.22-.057.319-.2.216-.416.413-.713.436-.398-.023-.87-.08-1.012-.517-.019-.14-.099-.319.043-.455.196-.198.49-.12.711-.276.235.155.591.056.751.333zm-1.918.257c.296.277.474.695.892.854.374.18.867.081 1.185-.141.378-.196.277-.652.653-.79l.12-.2.1.02c.039.534.437 1.271-.14 1.684-.474.417-1.186.18-1.765.16-.135-.08.08-.277-.117-.314a.846.846 0 0 1-.613.116l-.057.08c.057.1.179.1.297.117v.081c-.279.08-.535-.037-.776-.117-.552-.455-.117-1.211-.158-1.808.201-.155.239.16.379.258zm8.752.08c.118.08 0 .179-.062.26-.373.496-1.068.239-1.523.594v.236l.16.14c-.043.141-.22.038-.32 0-.234-.238-.234-.553-.098-.872.296-.081.338-.437.596-.555.196-.036.437 0 .59-.16.24.043.4.32.657.357zM9.026 8.257c.216.376.613.832.357 1.23-.3-.201-.436-.517-.596-.813.061-.158.041-.397.24-.417zm5.641 0c.02.098.08.315-.062.376-.153-.038-.332-.08-.392-.24.118-.074.32.22.376-.057l.078-.079zm-11.861.277c-.078.295-.473.473-.515.794-.137.158-.315.436-.555.295-.135.099-.178.277-.356.338-.038-.179.14-.338.197-.498l-.057-.057c-.178 0-.318.358-.478.217.222-.671.97-.592 1.408-1.069l.356-.02zm2.97.633c.08.24.139.536.417.696.277.178.337.594.295.91-.057.22-.277.337-.512.356l-.061.06c.1.18.296.16.456.218.14.3.257.712.018.99-.178.16-.393.3-.633.201l-.038-.06c.099-.278.357-.616.137-.893-.314-.416-.971-.774-.831-1.365.295-.22.474.278.732.356.043.118.06.255.159.334.136-.056.177-.216.24-.357-.319-.652-1.23-1.01-1.248-1.802l.038-.08c.218.24.498.457.83.436zm10.674-.418c.1.204.042.417-.038.616l-.22.14c-.038-.14.122-.256.16-.397l.037-.359h.06zm2.556.616c.038.436-.098.893-.514 1.112-.4.1-.358.85-.855.633.08-.196.178-.474 0-.651-.137-.123-.277-.282-.258-.46l.299.079.021-.296c.158-.08.177-.356.356-.356.06.24.294.454.178.712l.062.063c.135-.099.135-.32.097-.498.055-.216-.356-.338-.16-.515.1 0 .215.08.26-.04-.02-.141-.278-.159-.179-.337l.08-.037c.234.117.515.315.613.591zm-11.191.121c.177.26.437.457.754.474.138.099.098.258.138.395-.08.178-.179.436-.413.436l-.179.043c.038.179.334.16.314.356a.938.938 0 0 1-.116.573c-.122.061-.259.278-.376.14.02-.177.077-.318-.043-.453-.314-.302-.83-.14-1.048-.56-.12-.332-.098-.732-.335-1.028.018-.258.237-.436.255-.695.041-.116.041-.276.14-.374.239.276.534.595.909.693zm2.931.137c.199-.118.199-.394.417-.535.199.1.236.375.316.596.043.08.023.24.14.24.118-.104.02-.301.197-.338.24.037-.019.412.22.437l.197-.16c.179.06.1.239.057.375-.197.158-.493.117-.59.398-.062.155 0 .395-.221.456-.69-.098-.316-1.052-1.008-1.21-.197-.217-.357-.436-.338-.733l.06-.06c.197.14.376.374.553.534zm-6.852.595l-.056.26c-.282.018-.535.178-.775.313-.22.301-.515.617-.87.597-.038-.119-.038-.318-.198-.358l-.02-.159c.08-.116.217.1.236-.08-.118-.156-.297-.374-.197-.573h.178c.178.178.12.438.3.597.136 0 .056-.3.215-.14.24.355.474-.258.773-.24.316-.492-.557-.751-.515-1.248l.08-.08c.435.281.475.794.849 1.111zm9.667-.712l-.042.061-.179-.201.043-.259c.098.081.056.28.178.399zm11.98-.198c0 .334.06.733-.277.91a.296.296 0 0 0-.357.217c-.117.16 0 .38.062.535.196.178.412.3.689.318.2.082.417-.237.496.04-.295.436.695.792.038 1.091a.676.676 0 0 1-.474-.06c-.256-.24-.14-.676-.515-.854-.259-.079-.615-.056-.67-.413-.043-.277.037-.578.098-.812a1.726 1.726 0 0 1-.141-.638c.12-.116.375-.018.516-.075l.456-.32.08.061zm.534.155c-.117.203-.062.498-.319.615-.117-.098-.019-.333.023-.474.057-.098.198-.337.296-.14zm-4.216.023c-.062.235.135.474 0 .714-.239.155-.536.118-.713.377-.042.116.098.313-.062.355-.158 0-.294-.117-.356-.257-.117-.457.337-.715.435-1.09.198-.06.395-.178.617-.178l.08.08zm-19.25-.04c-.043.097-.14.237-.257.257 0-.117.158-.258.258-.258zm21.604.196c0 .478-.079.995-.554 1.21-.276.02-.497.218-.675.419-.08.196.277.314.08.511-.179.023-.315-.178-.356-.333-.217-.695.891-.89.871-1.587.217-.06.498-.651.634-.22zm-17.149.3c.277.414 1.109.08 1.027.733l-.077.037c-.334-.056-.673-.135-.912-.432-.198-.178-.198-.459-.215-.713.159.037.08.277.177.376zm2.398.338c.137-.042-.043-.319.177-.319.198.257 0 .553.058.812.258.338-.178.553-.235.854 0 .315-.098.653-.38.867-.074.4.042.917-.357 1.194a1.452 1.452 0 0 0-.037.694c-.14.357-.419.732-.18 1.144-.276.38-.178.892-.036 1.292l-.06.056c-.338-.137-.06-.535-.376-.633-.043-.137.117-.258.137-.414.018-.38-.633-.656-.198-1.012.1.022.198.218.277.06l.06-.117c-.12-.358-.221-.733-.355-1.113.018-.08.036-.196.158-.234.137.056.137.375.357.332l.037-.075c-.018-.356-.215-.676-.117-1.031-.178-.218 0-.437.117-.634l.06-.044c.119.082 0 .24.081.34l.179.48h.073c.062-.56-.135-1.072-.293-1.57l.22-.098c.135.16.295.314.375.492h.056c.123-.413-.178-.713-.333-1.045.02-.34-.418-.714 0-.99.197.196.375.491.535.712zm6.195-.516l-.214.037-.061-.08c.06-.118.256-.019.275.043zm-12.79-.019c0 .178-.24.178-.357.277l-.06-.06a.38.38 0 0 1 .417-.217zm24.794.633c-.02.1-.08.217-.197.235-.203-.036-.32-.235-.338-.412l.178-.123c0-.135-.198-.258-.061-.357.197.16.376.381.418.657zM1.935 9.863c-.039.118-.058.239-.18.315l-.098-.076a.46.46 0 0 1 .198-.338l.08.099zm24.694.257c-.118.058-.235-.097-.338-.177.079-.123.201.017.3.08l.038.097zM3.24 10.078l-.06.1-.1-.075.044-.08.116.055zm-.238.3l-.08.12-.153-.162c.017-.135.196-.08.233.042zm23.17.08l.08.217c.099.018.216-.142.278.018l-.04.178.099.044c.138-.124.16-.519.413-.382.301.32-.43.498-.154.756.258.02.178-.498.473-.295l-.036.254c-.123.202-.437.177-.437.458-.4-.104-.497-.655-.934-.774a.625.625 0 0 1-.65-.257c-.02-.142.096-.258.197-.296.158.038.115.296.317.278.118-.099.216-.518.395-.199zm-13.527.178c.178.057.123.555.4.296l.196.137c.098 0 .198-.278.277-.075 0 .235-.215.376-.234.591-.043.197.098.436-.177.497-.438.019-.56-.48-.776-.732-.141-.103-.319-.257-.397-.399 0-.196.078-.375.219-.516.239-.019.239.436.492.2zm4.813.119c0 .116-.155.116-.177.24.078.176.177.472.04.67-.178.337-.516.418-.811.475l-.159-.12c.117-.196.277-.435.098-.632-.08-.119-.179-.277-.118-.418.16-.18.339.399.438.024l.036-.203.179.124c.141-.124.018-.338.197-.419.122.019.24.16.277.259zm4.991-.062c0 .24-.057.376-.178.555-.235.219-.652.219-.77.577 0 .158-.024.337-.159.416-.24-.14-.295-.399-.319-.638.024-.394.675-.355.478-.789.098-.299.474-.14.671-.299.122 0 .22.08.277.178zm-18.593.178c-.099.258-.455.08-.634.198l-.042-.038c.1-.258.375-.06.535-.196l.141.036zm12.04.18h.137c.138.197.178.455.178.694-.057.159-.196.355-.395.395-.277.103-.516 0-.793-.076-.061-.044-.177-.16-.037-.24.1-.08.314 0 .357-.197.117-.24-.455-.557.038-.597.239-.08.417.536.515.021zm-1.923.238l.22-.08c-.018.141.137.118.197.179-.036.295.258.417.395.614-.119.18-.356.197-.573.197-.356 0-.554-.394-.694-.651 0-.198.098-.358.239-.479.159 0 .08.2.216.22zm-6.83.258c.218.098.493.038.634.258-.043.315.374.535.215.87a.528.528 0 0 1-.294.477.867.867 0 0 1-.555-.122l.038.221c.197.135.474.198.535.456.018.216.042.454-.08.633-.177.22-.455.258-.713.22l.02.136c.158.16.398.295.478.518a.513.513 0 0 1-.278.613c-.14.058-.299 0-.417.1.098.257.437.394.357.695 0 .214-.16.41-.357.473l-.296.135c.136.203.512.28.536.577 0 .24-.043.457-.22.597l-.316.037c.057-.177.199-.376.1-.572-.32-.417-.972-.338-1.07-.914.018-.12 0-.316.136-.414.4-.08.418.672.834.375.118-.08.155-.24.136-.375-.136-.357-.652-.38-.75-.775-.06-.178.08-.338.234-.436.283.062.639.516.854.117.08-.708-1.604-.867-.474-1.524.199.079.335.435.615.319.118-.039.056-.217.019-.296-.196-.357-.835-.497-.694-.99.178-.141.319-.558.596-.381.135.1.197.277.314.357.122-.08.222-.216.141-.357-.141-.277-.479-.295-.656-.534-.039-.297-.395-.634-.076-.893.215.042.253.32.454.4zm3.701.08c.08.375-.374.572-.553.83-.437-.393.16-.75.258-1.107.136 0 .258.156.295.277zm13.33-.024c-.12.38-.674.695-.338 1.15l.199.18c.22.077.22-.334.435-.198.296.177-.02.435.036.695.026.196.204.356.283.533-.141.02-.3-.06-.418-.177-.117-.117-.258-.258-.238-.436.06-.099.238-.141.22-.277-.258.018-.558 0-.775-.197-.355-.338-.116-.856.037-1.211a.492.492 0 0 1 .34-.216c.12-.042.257.018.22.154zm-5.052.657l-.118.16c-.12 0-.256-.103-.298-.238 0-.161-.018-.4.14-.476.178.118.258.335.276.554zm3.528-.16c-.062.474-.638.218-.773.616 0 .137-.08.337.079.418l.258-.258c.258-.062.554-.023.751-.24l.219.142c.075.534-.575.493-.754.866-.02.222-.24.579.079.715h.061c.099-.435.536-.715.868-.972.14-.018.24.122.3.24.02.516-.755.754-.713 1.267.018.14.136.24.259.299.332.04.216-.338.314-.496.16-.18.258-.437.497-.517.16.043.338.099.393.277-.017.558-.768.656-.848 1.193-.16.056-.258-.204-.418-.221-.454-.037-.535-.535-.675-.85-.235-.198-.591-.338-.652-.675l-.037-.574c-.301-.196-.38-.516-.4-.835.18-.177.142-.474.357-.61.258.074.479-.282.657-.023l.178.239zm-17.133.12l-.057.077-.24-.116c-.06.455.498.713.794.989.06.198.06.42 0 .616-.16.24-.419.296-.696.277l-.036.14c.196.235.652.315.553.715a.665.665 0 0 1-.34.492c-.256.117-.452-.098-.67-.16l-.06.062c.24.294.793.533.597.97-.062.137-.201.296-.357.296-.081-.037-.22-.037-.258.08.117.199.258.395.16.653a.426.426 0 0 1-.3.177l-.057-.116c.43-.417-.4-.652-.516-.992a.685.685 0 0 1-.099-.594l.235-.02c.08.197.398.339.257.572l.16.104c.16-.042.32-.14.358-.3-.08-.536-.775-.77-.813-1.348 0-.177-.06-.412.138-.493h.06c.14.26.576.359.534.715l.238.037c.137-.099.18-.295.1-.436-.197-.376-.714-.633-.634-1.089.04-.117.217-.198.338-.098.196.098.235.633.554.374l.098-.314c-.22-.28-.652-.399-.713-.774-.02-.32-.042-.714.24-.953.215.042.375.257.432.456zm6.28.656c-.22.276-.694.056-.891.413-.142.023-.16-.137-.179-.217-.06-.577.614-.653.929-.971.3.14.14.498.14.775zm6.355-.498c.041.16.14.4-.02.516l-.318.062c-.155-.08 0-.221.023-.339-.023-.14-.14-.375.04-.478a.241.241 0 0 1 .275.24zm-8.298.099a.836.836 0 0 1-.216.479l-.06-.024c.02-.18-.08-.455.118-.573l.158.118zm3.485.178c-.158.319-.412.615-.614.892-.435.098-.04.89-.553.553-.179-.136-.098-.474-.062-.651.122-.297.518-.493.535-.85.202-.142.418.018.658.018l.036.038zm4.04.577c.298.119.71.277.737.653-.044.14-.044.319-.204.356-.196-.018-.154-.24-.253-.356-.318-.357-.889-.24-1.05-.774-.042-.119-.16-.259-.061-.376.436-.315.535.295.83.497zm2.063-.258c.056.178.357.376.118.59-.376.32-.338-.332-.614-.472-.101-.1-.217-.216-.2-.376.236-.117.537.062.696.258zm-3.448-.042c.039.695 1.346.991.775 1.783-.099.123-.24.1-.358.06-.159-.177.197-.318.02-.534-.358-.338-.892-.455-1.088-.952.038-.197-.339-.394-.08-.554.258 0 .613-.08.73.197zm-1.39.042c-.098.437-.332.892-.766 1.09-.16 0-.32.098-.358.238-.177.179.16.413-.078.513-.118 0-.278-.118-.32-.255-.058-.656.178-1.309.756-1.727.233-.019.693-.234.767.141zm4.045.036c.155.261.473.5.375.837-.06.137-.197.314-.375.297l-.159-.1c.117-.258 0-.516-.24-.715l-.098-.12c.097-.136.295-.277.497-.199zm-8.26.518c-.061.295-.416.338-.572.615l-.141-.117c.02-.26.08-.536.297-.696l.318-.079.098.277zm1.524-.141c-.036.121-.055.24-.134.337-.124-.056-.278-.16-.32-.294.098-.118.294-.043.435-.08l.019.037zm9.564.281c.062.375-.234.713-.493.93-.16-.08-.196-.276-.14-.455.043-.277.358-.437.456-.676.14-.018.14.122.177.201zm-12.016.02c0 .216-.08.413-.258.535-.122-.042-.142-.16-.142-.277.02-.18.081-.4.278-.456l.122.198zm2.158.473c-.062.197-.277.197-.417.34-.199.195-.395.392-.395.67l-.159.041c-.16-.159-.16-.374-.1-.595.119-.357.475-.671.774-.929.253.018.217.313.297.473zm3.982.02c.57.121.413.81.909.99.118.042.234.141.26.257a.602.602 0 0 1-.18.499c-.122.097-.3.018-.436 0-.121-.123.056-.277-.019-.437-.4-.536-1.388-.356-1.45-1.23.1-.1.301-.116.32-.296l.08-.221c.179.141.313.32.516.438zm4.315.023c.018.197.177.376.037.554a.395.395 0 0 1-.412.116c-.08-.16.215-.313-.043-.453-.215-.082-.215-.278-.135-.457.195-.197.472.037.553.24zm-2.06.332c.197.302.731.577.474.972a.91.91 0 0 1-.395.221c-.238-.123.1-.32-.097-.455-.201-.221-.576-.201-.657-.517.178-.196-.135-.676.24-.614.135.136.256.337.435.393zm-3.208.062c.037.714-.83.714-1.13 1.23-.116.235.357.437 0 .552-.18 0-.375-.115-.436-.294-.038-.258.024-.459.06-.694.24-.16.573-.301.653-.598-.038-.098-.057-.258.06-.314.198-.159.812-.398.793.118zm4.456 0c.137.178.197.474.056.675-.056.039-.075.174-.196.156-.098-.277-.217-.591-.535-.67v-.279c.177-.299.497-.06.675.118zm2.81.24c-.056.314-.634.511-.413.928.039.142.154.258.295.339l.08-.042c.116-.277.24-.617.516-.751.617.712-.675 1.205-.177 1.9l-.063.1c-.651-.237-.059-1.09-.732-1.249-.196-.297-.417-.69-.177-1.03.16-.176.337-.355.394-.576.16.062.258.24.277.38zM9.34 14.815c-.038.098-.155.2-.277.159-.055-.1.019-.296.1-.414.177-.202.201.136.177.255zm3.306-.1c.024.376-.473.535-.393.911l.02.22-.235-.019c-.24-.177-.284-.454-.258-.713.055-.24.195-.454.393-.614.198 0 .418.037.473.215zm-2.532.456l-.395.595-.12-.139c-.02-.377.12-.691.374-.93.22.079.042.295.14.474zm10.756.239c-.025.14.057.258-.062.356-.117-.037-.22-.178-.277-.295.177-.238.02-.597.277-.756.356.08-.018.456.062.695zm4.234-.437c.061.615-.952.892-.633 1.527.296.197.258-.297.498-.395.135-.141.295-.278.493-.197.238.454-.436.652-.616 1.008-.08.08.019.338-.16.24-.136-.14.024-.357-.196-.46-.196.042-.338-.136-.414-.278l-.12-.276c.14-.178.12-.394.238-.572.277-.24.516-.597.832-.715l.078.118zm-7.782.34c.338.257.338.75.769.848.141.22.103.46 0 .675l-.214.1c-.1-.137.018-.358-.118-.493-.179-.202-.516-.14-.633-.42.075-.275 0-.594-.08-.872.099-.257.217.062.276.161zm2.792.293l-.02.279-.239.041c-.157-.14-.157-.356-.296-.516l.16-.136c.198-.005.357.155.395.332zm-4.259.1c.042.258.24.516.497.614.16.043.375.098.393.32.061.177 0 .376-.116.515-.117.156-.297.255-.475.197-.138-.197.259-.336.058-.577-.315-.51-1.048-.295-1.286-.948l-.019-.356c.358-.38.554.333.948.235zm-6.553-.136c-.018.16 0 .413-.177.474-.16-.1-.142-.339-.08-.474.038-.141.239-.16.257 0zm2.12.098c.038.356-.178.634-.436.85-.122.14 0 .318-.122.437a.435.435 0 0 1-.295-.258c0-.317-.038-.692.276-.87.18-.097.517-.657.577-.16zm3.288.217c-.12.337.178.577.333.852.32.16.774.28.89.673.1.318.457.318.714.397.16.138.08.377.043.536a.644.644 0 0 1-.338.339c-.18-.062.02-.222-.06-.358-.217-.812-1.365-.558-1.507-1.427-.136-.121-.196-.355-.376-.398v.238c-.078.493-.89.635-.633 1.208-.06.159-.196.08-.296.022-.219-.177-.177-.398-.177-.655.08-.26.118-.615.456-.654.24-.196-.02-.571.258-.713.215-.018.413-.037.572-.18l.121.12zm4.733.477c-.042.156-.079.375-.258.437-.122-.062-.024-.14-.043-.22-.136-.258-.67-.277-.59-.652.056-.124.178-.124.276-.141.277.017.512.337.615.576zm-6.557.019c.116.179.042.395-.038.535-.238.16-.615.179-.657.517-.018.153.161.294.1.436-.18-.042-.356-.16-.396-.338-.295-.714.437-1.169.792-1.685.18.118.1.357.199.535zm10.497.16c-.098.573-1.032 1.126-.339 1.74l-.078.063c-.315-.118-.337-.498-.436-.774.178-.16 0-.396.099-.573.079-.357.415-.578.415-.973h.179l.16.518zm-13.208.055c-.1.24-.417.359-.558.597-.137-.14-.057-.376 0-.554.08-.22.239-.436.436-.553.178.075.141.333.122.51zm-2.022.499c-.038.217-.24.455-.455.516-.24.056-.496.019-.614-.24l.08-.158c.178.042.314.356.517.177.116-.117.275-.235.176-.413-.121-.22-.417-.38-.336-.638l.238-.098c.197.24.255.577.394.854zm9.09-.553c.417.155.258.77.75.81.201.198.34.494.201.771-.078.24-.317.337-.477.496.178.161.356.339.418.575l-.098.299c-.222-.061-.18-.356-.359-.496-.177-.181-.477-.138-.594-.395.042-.32-.019-.634-.1-.935l.142.043c.116.258.356.492.534.712l.217-.196c.036-.46-.572-.615-.714-.995.118-.296-.08-.653-.257-.893.117-.275.257.104.336.204zm2.95.054c.02.179.08.4-.06.537l-.178-.136c.06-.3-.591-.4-.198-.676.178.017.375.08.436.275zm1.463.814c.025.558-.966.835-.511 1.427l-.142.022c-.472-.479.022-1.07.142-1.548.038-.178.236-.357.08-.554-.2.099-.141.435-.399.497l-.036-.356c.313-.062.276-.756.613-.418.118.277.197.614.253.93zm-12.471-.77c-.042.135.057.295-.103.357-.198-.02-.155-.26-.198-.4.043-.217.259-.079.3.042zm9.661.572c0 .3.438.32.418.658-.022.117-.022.252-.141.332-.176-.235-.416-.534-.693-.69-.098-.14.018-.281.08-.398.078-.24.295-.038.336.098zm4.771 1.446c-.02.103.202.22.042.3-.294-.3-.398-.836-.276-1.21.258-.198.258-.518.475-.715.514.579-.358 1.014-.24 1.625zM4.41 17.611c.2.156.395.357.36.634 0 .135-.063.276-.18.337h-.24l.14-.281c.08-.493-.632-.69-.553-1.187.296-.099.277.356.473.497zm6.657.713a.348.348 0 0 0 .234.277c.16-.043.277.098.258.235l-.056.4c-.202.178-.32.435-.499.572-.157-.335-.017-.732.218-.972-.076-.197-.394-.075-.414-.357-.12-.473.18-.867.457-1.187.356.338-.1.695-.198 1.032zm-.614-.872c.079.417-.4.653-.535 1.008l-.062.043c-.136-.08-.158-.24-.136-.398 0-.358.334-.574.573-.793l.16.14zm9.563.694l-.16.234c-.356-.056-.098-.436-.233-.67l-.025-.199c.179.156.437.358.418.635zm-10.873.234l-.116.042a.985.985 0 0 1-.1-.754l.118-.157c.338.157.118.611.098.87zm-.595-.511c-.038.155-.019.333-.196.414l-.178-.039c0 .26 0 .671-.279.752 0-.277.019-.616-.294-.752-.098-.042-.24-.042-.258-.158l.16-.217c.215 0 .473.316.65.036.08-.098.062-.257.178-.336.142.042.179.198.217.3zm16.244.357c-.08.332-.64.511-.498.91.06.118.24.178.196.315-.117.098-.233 0-.356-.082-.355-.233.043-.553.06-.829.217-.258.296-.595.475-.874.159.142.159.358.123.56zm-11.708.154c-.118.457-.731.302-.892.756h-.116c-.295-.578.455-.891.571-1.37l.08-.075c.22.178.202.474.357.69zm1.627-.196c.036.597-.675.436-.835.872-.057.137.02.358-.079.456-.258-.117-.333-.395-.333-.633.017-.555.967-.18.712-.832 0-.141.156-.22.255-.28.219 0 .219.257.28.417zm1.167.22c.296.178-.159.412.118.61l-.062.08c-.331-.057-.632-.295-.847-.59-.198-.204-.018-.48-.277-.635l.018-.102c.358.2.652.533 1.05.637zm-10.182-.282c.062.436.676.658.638 1.15-.06.301-.436.301-.638.48.062.216.161.474-.074.651l-.301.08c-.158-.142.141-.221.159-.338.098-.393-.417-.456-.573-.75-.079-.1-.12-.239-.079-.358l.216.099c.179.216.376.395.633.375.123 0 .238-.098.3-.216-.022-.613-1.172-.792-.613-1.488.134.04.258.16.332.315zm16.618.222c0 .455-.693.652-.497 1.13.02.117.141.235.08.334-.393-.119-.315-.614-.455-.93.1-.357.437-.596.614-.91.137.038.217.234.258.376zm-3.109.652a.473.473 0 0 1-.178.299c-.16-.139-.337-.356-.554-.459l-.042-.137c.277-.356.535.16.774.297zm-10.536.06c-.04.18.12.437-.098.535-.318-.14 0-.554-.276-.754.037-.555.276.121.374.22zm12.158.18c0 .16-.196.215-.216.356-.1.239-.122.417-.122.67-.196.062-.373.283-.511.4-.22-.338.277-.517.334-.813-.02-.398.08-.834.277-1.168.202.118.14.356.238.555zm-10.177-.34c-.02.297-.26.536-.418.757l-.137-.16c0-.32.04-.634.337-.774.119-.038.18.097.218.178zm9.286.198c.02.16.042.38-.118.498-.12.037-.14-.098-.159-.16-.139-.217.34-.473-.08-.573l.019-.06c.142.037.3.14.338.295zm-12.377.338c.177.16.22.399.201.634-.042.258-.32.275-.477.455-.04.24-.02.516-.297.615l-.196-.057c.057-.202.196-.357.017-.558-.14-.118-.376-.26-.277-.474.26-.198.437.258.672.356.16-.037.2-.216.222-.356l-.044-.24-.652-.75.196-.179c.34 0 .359.417.635.554zm14.99 1.033l.062.177-.217-.08c-.202-.22-.258-.514-.177-.81.155-.32.394-.616.612-.873.537.553-.556.929-.28 1.586zm-6.927-.972c.16.098.413.216.435.436-.04.155-.04.315-.122.437-.197-.061-.455-.08-.534-.318-.055-.16.2-.28.043-.395-.098-.043-.258-.141-.258-.282l-.099-.136-.14.216c-.218.258-.634.3-.673.675-.08.198.118.437-.097.555-.159 0-.3-.137-.357-.278-.061-.395.454-.572.454-.952-.022-.234.259-.156.395-.234.14-.061.258-.338.437-.16l.516.436zm-5.944.258l-.216.037a.774.774 0 0 1-.177-.712h.177c.098.218.277.435.216.675zm3.288-.042c-.196.197-.633.357-.595.712l.121.16-.258-.019c-.14-.158-.121-.416-.08-.612.516-.101.258-.954.874-.874.037.177-.025.417-.062.633zm4.437-.258c0 .22.02.516.258.614.057.221.297.456.117.695l-.197.08c-.059-.339-.534-.418-.436-.812.019-.339-.141-.596-.257-.892.24-.22.376.178.515.315zm-.632-.02c.055.178-.08.278-.178.377-.18-.118-.22-.357-.3-.572.08-.142.258.018.379.078l.1.118zm4.633.377c-.024.3-.515.478-.3.812 0 .12.258.202.14.337-.159.042-.276-.159-.355-.276-.18-.437.178-.812.296-1.207.14.037.159.215.22.334zm2.434-.155c-.041.493-.632.75-.496 1.267l-.037.277c-.278-.08-.221-.498-.26-.714 0-.319.376-.474.497-.732l.119-.258.177.16zm-5.051.315c.08.24.02.515-.16.695l-.234.098c-.078-.08-.24-.161-.198-.278l.02-.018c.1.036.018.215.16.235a.292.292 0 0 0 .196-.278c.057-.258-.436-.534-.079-.813.159.044.277.222.295.359zm-10.257.08a.737.737 0 0 1-.199.633l-.276.08c0-.118.099-.24.119-.357.079-.258-.137-.555.06-.751.178.036.217.253.296.394zm2.02.675l-.16.037c-.158-.117-.158-.295-.097-.454l.197-.4c.32.178.06.515.06.817zm1.051-.714c-.14.296-.319.634-.238.967l-.062.08c-.136-.057-.216-.216-.234-.375-.08-.376.234-.573.492-.732l.042.06zm7.96.277c-.019.179-.177.357-.356.437-.159-.22.117-.38.098-.597.117-.198.258.062.258.16zm-6.2-.079l-.038.456c-.16.313-.774.552-.498.928l.08.08c-.018.121-.153.041-.217.02-.116-.04-.294-.119-.317-.254-.179-.461.454-.597.356-.972.24-.062.436-.536.634-.258zm-3.922.972c.479.314.08.866.08 1.266.099.83.041 1.606.38 2.357.198.436.43.914.295 1.45l-.159 1.046c-.376.558-.516 1.192-.732 1.826l-.117-.08c-.043-.117.099-.338-.061-.357.018.198-.294.296-.159.516-.117.474-.216.93-.24 1.428-.356.493-.374 1.126-.83 1.581-.06.08-.258.179-.117.277.159.08.357-.254.436-.037-.099.435-.634.276-.933.435-.216.278-.591.24-.85.493-.238-.178.118-.453-.122-.652-.178.061-.036.474-.294.338-.118-.139-.039-.338 0-.473.098-.202.337-.06.474-.18-.137-.2-.296-.417-.155-.675.037-.08.097-.198.215-.16.257.14.595.3.89.14.418-.397.597-.89.615-1.426l-.098.057c-.08.24-.141.558-.417.638l-.08-.104c.061-.333.16-.712.044-1.01-.203.142-.044.518-.162.716-.097.159-.097.474-.357.453-.178-.374.217-.67.118-1.05 0-.179.08-.375-.018-.554h-.038c-.08.197-.062.456-.178.596l-.08-.062c.08-1.225.456-2.317.75-3.444.142-.854.02-1.784 0-2.656a5.065 5.065 0 0 1-.197-1.746c.296-.196.832-.295.85-.77.477-.201.735-.693.755-1.192h.178c.216.301.018.756.314 1.015zm.559-.456l-.16.037c-.14-.098-.198-.277-.14-.418h.178c.097.1.097.24.122.38zm6.65 0a.577.577 0 0 1-.197.572l-.257.036c-.039-.214.196-.473-.039-.67l-.06-.159c.118-.08.318.019.455.06l.098.16zm-1.82 0c-.198.413-.891.713-.711 1.247l-.297.039a.422.422 0 0 1-.122-.498c.041-.432.497-.535.81-.653.142-.117.1-.437.32-.375v.24zm1.07.493c-.042.097-.24-.037-.24.116 0 .202.338.179.24.38-.14.1-.318 0-.436-.06-.297-.277-.196-.752-.394-1.09l.037-.06c.278.22.793.258.793.714zm4.733-.296v.197c-.12.08-.24-.099-.297-.197-.022-.098-.08-.24.039-.3.178 0 .216.179.258.3zm1.088.26c0 .176-.019.411.178.51.117.043.32.08.399-.099.036-.098.155-.154.276-.154.117.136.315-.08.394.074-.018.357-.652.676-.197 1.033l-.06.06c-.178-.041-.377-.2-.357-.435 0-.14.22-.32 0-.419-.216-.038-.394.22-.615.042-.195-.177-.215-.436-.215-.694.02-.22.238-.357.436-.435.216.215-.22.295-.24.516zm-4.437-.302l-.057.121c-.121 0-.202-.08-.258-.177l.08-.16.235.216zm-10.85.675c0 .16-.098.315-.259.337l-.237-.12c.062-.155.338-.296.237-.513-.08-.12-.218-.22-.175-.357l.257-.022c.135.2.135.436.176.675zm1.304-.296c-.036.156-.215.277-.356.333l-.116-.098c.116-.178.098-.437.276-.572.16.056.141.216.196.337zm12.735.395c.14.198.178.437.338.615l.596.614c.394.948.455 2.061.431 3.15-.295 1.722-.197 3.468.416 5.135.062.196.24.412.457.474.22.036.553-.043.613.275.02.377.143.775.516.972.099.098.277.117.297.315-.02.121-.08.24-.179.3-.118-.097-.177-.417-.413-.357-.123.057-.177.277-.32.2-.097-.162.04-.36-.017-.556-.14-.22-.122-.497-.3-.713-.156.08.079.177.041.276l-.06.494c-.099.14.018.46-.216.559l-.259-.043c-.16-.377-.693-.536-.675-.949-.295-.2-.315-.498-.375-.773-.178-.359-.393-.715-.455-1.131-.178-.358-.16-.812-.296-1.207-.219-.498-.613-.934-.754-1.446l-.295-1.21c.017-.634.115-1.09.178-1.724.097-.736.019-1.488.117-2.261 0-.455-.137-.948-.235-1.427l.118-.117c.216.196.454.436.731.535zm.733-.118c-.02.099 0 .236-.12.259-.115-.023-.294-.06-.294-.22l.037-.242c.159-.152.357.044.377.203zm-2.434 1.784c-.142 1.346-.518 2.553-.616 3.9-.037.854.554 1.549.594 2.38 0 .374.12.793-.159 1.09.02.176-.059.515.217.593.2.02.436.1.497.297.178.3-.14.577 0 .855a.384.384 0 0 1 .456-.08l.06.136c-.099.08-.257.06-.32.2-.018.1.021.26-.098.296-.159 0-.098-.375-.295-.196-.197-.123-.1-.455-.197-.657-.28-.234-.122-.69-.516-.85-.14-.042-.337-.018-.356-.197.019-.933-.515-1.684-.536-2.577l-.14-.398c.179-.357.1-.85.14-1.225-.04-.1 0-.277-.14-.301-.197 1.248-.516 2.498-.59 3.807l-.099.098c-.437-.713-.08-1.543.075-2.3.276-.99.454-2.06.398-3.088-.08-.99-.06-1.844-.3-2.797.122-.259.46-.234.677-.357.214-.235.472-.454.749-.651.615.454.535 1.309.499 2.022zm-1.447-1.765l-.06.118-.178-.16.042-.098.196.14zm-2.218.259c.037.295-.178.516-.258.793l-.24.057c.081-.138-.037-.358.043-.513.097-.178.08-.399.24-.516l.215.179zm-4.714.038c.062.754-.02 1.525-.08 2.28l-.097.02c-.16-.794-.574-1.803.017-2.518.124 0 .14.138.16.218zm1.801.22c.614.375.496 1.107.496 1.74-.276 1.408-.078 2.836.475 4.121.043.142.099.32 0 .437l-.16-.137-.056.081c.099.51.357 1.028.278 1.606-.041.098-.081.253-.198.276-.158-.3-.158-.675-.319-.972-.198.197.02.536-.08.794-.018.136-.018.276-.118.375-.177-.02-.077-.296-.177-.398-.08-.235-.06-.494-.16-.714l-.098.06c-.06.437.217.892 0 1.291l-.497.752c0 .337-.136.634-.196.91.017.24-.2.48-.08.694l-.156.142c-.12 0-.239 0-.3-.124-.018-.214.198-.534-.117-.65-.16-.02-.276.135-.338.24-.036.177.32.492-.036.534l-.18-.18c-.023-.318.039-.676.316-.817.197.025.455 0 .513.26l.101.3.06-.043c-.02-.258.136-.59-.08-.83h-.238a.456.456 0 0 1-.039-.475c.081-.257.338-.102.517-.178.412-.38.473-.971.412-1.488H11.7c-.062.456-.16 1.03-.635 1.23l-.22-.08c.043-.178.1-.338.22-.478.117 0 .117.24.235.103-.155-1.23-.098-2.558-.036-3.869l-.1-.791c-.219-1.367-.614-2.695-.357-4.102.16-.136.236.122.395.042.24.08.398-.099.614-.08l.375.418zm4.1-.16c-.02.118-.137.216-.217.295-.177-.098.021-.258.04-.393.058-.141.218.019.177.098zm3.073.179c.177.67-.08 1.328-.043 2.042.16 1.266-.234 2.415-.493 3.585l-.08.037c-.277-.432-.06-.99-.08-1.502.198-1.427.377-2.853.437-4.303.099-.178.259.042.259.141zm-5.526.417c.098.316-.179.61-.159.949.018.99.417 2.101 0 3.073-.099.296-.08.652-.276.892l-.1-.142-.098-2.096c-.337-.757-.26-1.648-.26-2.498.082-.22.02-.515.297-.594.277-.02.376.294.596.416zm8.077-.16l-.1.137-.133-.1.077-.134.156.098zm-14.992.179c.456 1.009.26 2.16.179 3.266-.117 0-.136-.136-.179-.215-.232-.892-.276-1.722-.336-2.675 0-.159.08-.911.336-.376zm9.588.277c.198.99.573 2.097.296 3.11-.136.236-.136.555-.276.77l-.081-.074c-.517-1.15-.474-2.46-.573-3.707.1-.16.334-.141.475-.24l.16.141zm6.158 1.286l.1 1.745c-.119.654-.16 1.286-.358 1.92l-.04.755c.477.714.495 1.625.693 2.417l-.198-.177c-.078-.141-.117-.319-.257-.376-.02.277.117.553.257.794l.119.252h-.099c-.633-.536-.713-1.346-.83-2.116-.16-.99-.117-2.202.098-3.192 0-.952.037-2.042-.098-2.951l.08-.258c.514.178.412.791.533 1.187zm-13.25-.792c.08 1.505.18 3.054-.357 4.481-.159.395-.295.832-.473 1.206l-.042-.057c.042-.915.48-1.746.596-2.656.117-.971.019-2.023.22-2.95l.056-.024zm5.783.476c.142.1.357 0 .437.137-.118 1.727.16 3.37.694 4.913-.197.756.057 1.63-.357 2.281-.533.695.456 1.19.197 1.864l-.077.08c-.555 0-1.053.039-1.589 0-.332-.356-.435-.834-.392-1.328-.117-.437-.339-.97-.098-1.408a3.876 3.876 0 0 1-.061-2.023c.22-1.088.337-2.294.159-3.366-.098-.436-.043-.871.019-1.27.197-.138.496 0 .693-.18.179.025.198.26.375.3zm-4.492 3.113c.056.258-.099.511-.123.751-.038.83.455 1.586.357 2.436-.099.259-.198.596-.493.676-.257-.043-.436.158-.634.158-.043-.454.258-.834.316-1.29.042-.592.238-1.187.318-1.801.02-.376-.06-.795.08-1.109l.179.179zm8.69 1.17c.221.632.498 1.327.417 2.017-.017.3.236.714-.06.952-.18-.018-.417-.036-.492-.238l-.221-1.662c.061-.376.179-.733.296-1.07h.06zm-2.058.614c.08.67.258 1.365.276 2.036l-.117.971.198.42c.238-.16.14-.795.594-.635.118.1.118.277.056.418-.056.136-.332.234-.214.374.135-.04.276-.158.417-.04.076.14.275.239.196.397-.08-.06-.12-.22-.238-.258-.16-.06-.277.1-.338.217-.1.203.357.455.022.576-.337.02-.157-.356-.281-.497-.098-.136-.178-.296-.333-.355-.098.08.057.177.057.3-.08.154.022.431-.196.51-.24-.154.159-.712-.339-.67-.375.215.32.694-.196.732l-.08-.08c0-.357-.099-.713.177-1.01.1-.22-.313-.177-.134-.399l.233-.055c.06.08.161.136.203 0l-.18-.597c.197-.83-.3-1.567.117-2.337l.1-.018zm-7.605.154c.02.259-.097.516-.219.754h-.056c-.062-.276 0-.613.275-.754zm3.801.201c.121.395.3.87.08 1.268l-.117-.221c-.081-.313-.14-.731 0-1.047h.037zm6.795.672c.099.24.218.498.198.755l-.16-.06c-.159-.197-.079-.455-.079-.695h.041zm-7.331 1.132c.025.196-.056.375-.056.534.08.099.179-.099.277.02.038.197-.16.394-.041.573.103-.076.2-.218.337-.199.061.062.197.179.061.26l-.26.115c.218-.018.396.202.555.358-.117.202.197.478-.057.639-.22-.081.02-.338-.102-.518-.075-.158-.276-.158-.395-.06l-.159.044c-.019-.142.08-.283.123-.401-.381.08-.16.535-.4.756-.136-.103.043-.283-.037-.398-.024-.338-.277-.555-.257-.911-.198-.118-.141.196-.3.276-.058.061-.197.118-.18.24.202.098.419.314.398.553-.04.098-.019.258-.139.295-.217-.178.062-.472-.234-.571-.16-.02-.302.056-.357.197-.024.16.155.374-.062.473-.256-.1-.141-.412-.159-.614.197-.455.061-1.07.516-1.346.16-.08.358.158.456-.04-.02-.256.116-.454.294-.594l.178.319zm6.16.337l-.179-.062c-.075-.06-.178-.239-.037-.294.098.074.295.215.215.356zm-2.453-.239c-.038.258-.217.456-.297.67-.098-.074-.04-.295 0-.412.1-.08.155-.535.297-.258zm-7.309.137l-.08.121-.098-.121.062-.217.116.217zm11.07-.1l-.239.043-.019-.063c.062-.115.179-.037.258.02zm-9.82.202c-.142.357-.241.733-.556.99-.041.278-.12.573-.06.849l-.038.099-.121-.117c0-.196.16-.435-.058-.553L9.5 32.39c-.098.043-.08.179-.196.179l.037-.236c.202-.16.535-.121.656-.378.039-.297 0-.715.333-.87.123 0 .257-.023.32.08zm9.88.296l-.06.02c-.061-.02-.178-.18-.038-.218l.099.198zm-10.756 0c.162.573-.612.494-.791.93l-.116-.178c.06-.197-.039-.457.141-.591.134.078.332.257.453 0 .098-.062.258-.616.313-.161zm10.402.535l.294.493c-.217.202-.062.399 0 .614l-.119.203c-.354-.339-.058-.873-.416-1.193-.118-.197-.216-.436-.216-.652l.216-.043c.22.122.099.418.241.578zm4.81-.4c.04.283-.018.616.178.837.236.215.555.258.732.494-.037.176-.158-.021-.257 0l-.296.097c-.614-.358-.576-1.047-1.031-1.501l.122-.123c.215 0 .454-.02.553.197zm-.534.382c-.042.435.178.811.135 1.224v.357c-.374-.038-.036-.535-.234-.77-.239-.196-.614-.3-.712-.634.037-.177-.123-.417.037-.534.318-.024.634.08.774.357zm-3.049 1.087l-.258.118c-.12-.118 0-.337-.042-.455 0-.16-.176-.315-.019-.436.295.14.32.498.32.773zm-.613-.318l-.1.14-.121-.14.08-.177.14.177zm-2.083.338l-.12-.02.081-.275c.117.036.08.195.039.295zm6.973.197l-.04.024-.02-.16.06.136zm-.773 0l-.042.122-.118-.14c0-.137.197-.1.16.018zm-7.327.614c.12.099.235.26.395.26 1.389 1.088 2.04 2.773 1.745 4.5-.259 1.403-1.47 2.83-2.877 3.267-1.599.497-3.305.04-4.51-1.051-1.25-1.128-1.587-2.831-1.229-4.38.374-1.545 1.898-2.934 3.465-3.149a4.353 4.353 0 0 1 3.011.553zm-5.764-.454a.961.961 0 0 0-.417.577l-.294.037a.285.285 0 0 1-.1-.356c.14-.141.276-.338.454-.377.117.04.295-.017.357.119zm-.849-.038c-.16.178-.356.375-.399.614-.098.156-.314.099-.436.057-.197-.16-.057-.394.042-.535.18-.257.476-.16.733-.178l.06.042zm1.483.038c-.277.14-.177.497-.436.633l-.217-.179c-.017-.235.196-.436.376-.534.1-.039.239-.039.277.08zm.633.08c-.118.177-.277.435-.512.435l-.061-.275c.117-.142.259-.338.474-.32l.099.16zm-3.128.036c-.297.123-.235.461-.235.676l.098.216.947-.037.042.098-.195.098.075.098.14.124c-.062.197-.296.235-.418.413-.039.399-.634.3-.492.713 0 .122-.062.24-.18.301l-.158.055c0 .142.158.062.196.179.222.278-.455.417.02.535.08.121.06.32.023.437-.122.177-.338.043-.498.017-.258-.017-.313-.51-.613-.234-.258-.239-1.107.296-.813-.418l-.196-.06-.159.104c-.116-.259 0-.535-.258-.737.019-.12.319-.179.221-.376l-.22-.037-.137.037c-.222-.197-.025-.535-.16-.752v-.258c-.062-.079-.178-.018-.197-.14l.098-.08c.714.043 1.408-.156 2.121-.056.215-.08.553.135.61-.16 0-.319-.413-.042-.474-.295-.037-.3.22-.497.436-.638.117.08.394-.075.376.177zm15.506-.018l-.08.121-.098-.14.059-.099.12.118zm-6.097.276l.019.319c-.476.338-.456-.374-.733-.534l.136-.159c.24 0 .436.178.578.374zm-10.356-.314c.018.16-.179.16-.179.296-.062.118-.024.319-.202.376-.136 0-.315 0-.375-.156a.584.584 0 0 1 .318-.478c.136-.018.315-.16.438-.038zm9.58.235c0 .122.1.319-.036.418l-.22-.02c-.118-.178-.18-.435-.375-.576.177-.215.491 0 .631.178zM8.134 33.54c-.043.099-.16.141-.197.258-.08.141-.023.338-.178.418-.14.019-.3-.019-.32-.16-.037-.296.32-.437.518-.573l.177.057zm9.705.221l-.14.019c-.1-.062-.24-.081-.32-.198.121-.178.356.038.46.18zm2.374.018l.04.357c-.098.136-.299.06-.417.02-.079-.217-.294-.358-.454-.536l.117-.117c.3-.043.497.136.714.276zm.932.198c0 .159-.177.197-.3.22-.276.019-.295-.338-.535-.399l-.097-.216c.318-.16.613.08.853.277l.08.118zm.794.08l-.141.238c-.24-.098-.357-.356-.572-.515l-.081-.18c.137-.117.333.02.493.082.121.08.32.195.301.374zm.65-.18a.507.507 0 0 1-.018.339l-.32.019-.336-.554c.061-.122.22-.079.318-.122.16.023.297.178.356.318zm.794.142l.02.253c-.082.103-.218.103-.338.042-.119-.178-.217-.374-.357-.553l.098-.122c.259-.057.379.22.577.38zm.75.018c-.019.12-.037.258-.177.297-.217-.118-.339-.395-.553-.572.138-.28.393.036.594.055l.137.22zm.676.08l-.16.217c-.214-.062-.214-.315-.355-.475.017-.122.177-.043.256 0 .099.056.24.137.259.258zm-6.06 1.784c.652 1.287.615 3.008-.319 4.159-.278.275-.517.693-.891.853-.394.314-.892.416-1.346.597-1.703.295-3.325-.438-4.218-1.943-.651-1.194-.613-2.836.136-3.966.338-.554.872-1.09 1.45-1.286.375-.278.83-.32 1.266-.437 1.585-.24 3.13.595 3.921 2.023zm6.593-1.685l-.078.056c-.099-.056-.141-.177-.141-.295.141-.038.2.14.22.24zm-9.605-.08c.119.038.258-.16.338 0-.178.81-.418 1.605-.516 2.417l-.098.08-.08-.042c.018-.85.042-1.68.042-2.516.098-.18.216 0 .314.06zm-.436-.02c-.08.752-.16 1.564-.08 2.358l-.036.042-.1-.104c-.06-.714-.299-1.403-.516-2.098 0-.098-.036-.239.098-.295.16.037.358.177.518 0l.116.098zm10.577.058l-.14.22c-.117-.06-.08-.16-.058-.277l.198.057zm-9.23.258c.122-.02.239-.16.355-.058.043.395-.435.672-.572 1.048-.197.38-.356.793-.633 1.15l-.06-.117c.195-.733.357-1.508.496-2.258l.236-.023c.08.08.06.2.177.258zm-2.06.756c.122.492.358.948.399 1.482l-.06.08c-.395-.455-.497-1.05-.855-1.544-.075-.295-.413-.553-.376-.872.161-.082.518.14.576-.179.377.18.158.694.316 1.033zm-8.513-.615c.018.117-.06.215.038.276.098-.018.14-.159.258-.099l.08.338c.08 0 .135-.159.215-.042.061.16-.178.32-.036.456h.158c.117.177-.22.319-.04.435.077-.06.219-.098.236.043 0 .099-.159.197-.04.277.102 0 .238.08.158.198-.037.098-.216.16-.178.276.1.099.277-.14.32.061.037.179-.277.277-.1.436l.198-.061-.098.18-.142.08c.062.195.32 0 .457.098.317.455.633-.099 1.012-.018.437.08.83.436 1.304.275.614-.337.098-.934.178-1.427-.038-.732.812-.99 1.052-1.605l.159.02c.098.117.037.318-.044.418-.074.177-.332.197-.313.393.06.062.198.08.177.222.062.214-.694.355-.177.43-.02.179-.295.358-.099.56-.042.178-.24.356-.062.533-.196.155.043.315-.134.494-.283.22-.639.376-.995.26-.118.14-.333.018-.356.219.121.278.238.554.219.869.277.3.493.713.91.854.118.06.296 0 .356.16.062.154-.16.394.08.454h.141c.196.295.555.573.432.95-.155.158-.432.14-.61.078-.103-.136.076-.234.118-.357-.4-1.07-1.544-1.385-2.515-1.604-.219-.156-.496-.217-.633-.493-.158.037-.06.178-.122.276a.313.313 0 0 1-.356.136c-.277-.275-.695-.275-.947-.592-.162-.078-.104-.374-.3-.338.06.378.06.794-.258 1.09-.217.179-.512.22-.812.197-.196.16-.08.558-.098.817.06.076.08.196.196.216.277-.08.277.258.38.418l-.079.08c-.301-.142-.676-.203-.813-.518l-.022-.95c.12-.26.397-.395.675-.42l.098-.215c-.417-.258-.177-.715-.16-1.052.044-.216.48-.338.259-.554-.099.039-.237.08-.259-.06-.079-.437.142-.832.142-1.267a1.297 1.297 0 0 0-.221-.972l-.08.061c.103.276.282.634.042.892-.14.098-.079.418-.295.337-.558-.356.216-.754-.06-1.169.116-.435.099-1.031.632-1.229.276-.08.614-.041.774.18zm5.784 0l-.105.16-.098-.124c-.017-.135.222-.256.203-.036zm1.68-.02c.318.77.792 1.503 1.171 2.259l-.14.036c-.498-.632-1.07-1.303-1.685-1.839-.037-.122.098-.202.198-.222.32.124.202-.393.455-.234zm4.196.358l.042.216c-.595.497-1.21 1.009-1.721 1.586h-.06c.295-.713.847-1.371 1.149-2.083l.177-.078c.12.138.179.415.413.359zm-8.433-.24l-.06.117-.02-.159.08.042zm.338.018l-.062.08-.08-.06.142-.02zm-1.388.08l-.079.118-.137-.099.079-.117.137.099zm.337-.037l-.08.135-.097-.08.177-.055zm-.774.099l-.056.098-.122-.098.08-.141.098.141zm-.392.018l-.08.098-.12-.098.077-.118.123.118zm2.235.296l-.06.079-.08-.036.14-.043zm3.21-.018c.374.694 1.13 1.248 1.603 1.88-.117.119-.277-.079-.417-.134-.493-.56-1.186-.755-1.722-1.23.02-.221.437-.16.356-.455l.18-.061zm-4.259.117l-.08.098-.118-.098c.02-.118.198-.1.198 0zm.356-.038l-.038.08-.079-.061.055-.08.062.061zm-.713.08l-.1.1-.098-.08.08-.118.118.098zm10.14.376c.02.257-.301.239-.456.376-.613.237-1.148.713-1.743 1.012l-.098-.08c.553-.675 1.307-1.149 1.88-1.782.257.036.098.455.417.474zm-10.952-.32l-.079.122-.117-.122.097-.154.099.154zm.394-.056l-.056.1-.141-.08c-.019-.141.178-.118.197-.02zm.436.517l-.118.134-.098-.134c0-.16.216-.141.216 0zm.695 0l-.062.074-.037-.178.099.104zm.355-.044l-.06.1-.075-.08.135-.02zm-1.463.044l-.06.154-.14-.098c-.038-.136.2-.197.2-.056zm.77-.044l-.057.1-.079-.057.136-.043zm3.743.119c.657.436 1.247.97 1.903 1.35v.076l-.122.022c-.711-.3-1.443-.515-2.194-.711l-.044-.18.223-.22c-.081-.16 0-.536.234-.337zm6.28.139v.32c.057.075.217.075.196.216-.139.198-.454.178-.711.24-.614.08-1.15.413-1.764.455l-.02-.122a118.06 118.06 0 0 0 2.097-1.189l.202.08zm-10.398.358l-.079.14-.119-.103c-.018-.116.259-.254.198-.037zm-.395.037l-.06.104c-.116-.025-.14-.16-.038-.24l.098.136zm.752-.074l-.039.117-.098-.061c-.023-.08.117-.178.137-.056zm3.404.393c.695.395 1.45.573 2.2.776l.06.134c-.833.043-1.682-.098-2.476 0-.117-.018-.159-.178-.08-.257.296-.179-.238-.715.296-.653zm-3.761.142l-.137.036.038-.116.099.08zm1.068-.025l-.06.08-.075-.037.135-.043zm9.645.1c-.038.121-.16.3 0 .4l.04.214c-.754 0-1.645-.117-2.396.044l-.197-.1c.038-.18.279-.141.394-.202a8.909 8.909 0 0 0 1.98-.493l.179.137zm-2.772.534c0 .358-.02.794-.395.971-.24.124-.596.18-.811 0-.22-.117-.419-.295-.455-.534-.024-.259-.024-.536.155-.732.178-.16.38-.278.596-.314.374.018.791.215.91.609zm-.338 0c.06.203.078.416-.057.598-.14.115-.276.196-.454.177a.593.593 0 0 1-.479-.359c-.038-.213-.018-.416.159-.572.22-.2.712-.177.831.156zm-.118.104c.062.155 0 .313-.098.414-.142.098-.338.139-.474.04-.14-.12-.16-.276-.179-.418a.603.603 0 0 1 .297-.296c.178.04.417.04.454.26zm3.246.155l.079.202c-.098.098-.234.214-.135.357l.037.196c-.473-.06-.928-.277-1.407-.376-.375-.12-.848-.022-1.145-.3.038-.117.18-.055.278-.1.792-.017 1.524.1 2.293.02zm-4.69.14c-.24.24-.675.217-1.032.296-.455.099-.909.24-1.365.376-.32-.1.16-.455-.197-.593.055-.319.394-.04.591-.14.638.042 1.328-.019 1.982 0l.02.06zm4.493.713l.121.26c-.121.134-.28.234-.2.437l-.155.056c-.657-.476-1.351-.77-2.04-1.17l.018-.08c.752.179 1.445.457 2.256.497zm-4.413-.417l-.062.122c-.692.376-1.407.689-2.058 1.127l-.16-.117c.16-.24-.535-.456-.08-.598.835-.078 1.525-.473 2.341-.572l.02.038zm-3.627.122l-.06.277.202.235-.142.2c.359-.04.199.378.319.555.057.338.672.634.297.971l.196.039.16.018.773.854c-.08.278-.356 0-.534.137-.141.06-.277-.02-.319-.155-.038-.123.061-.32.24-.279l.036-.06c-.08-.257-.215.117-.356-.06-.08-.26-.493-.16-.376-.455l-.178-.357c-.019-.138.277-.217.1-.338-.259.059-.436-.137-.535-.358l-.08-.155c-.16 0 .019.334-.197.217-.018-.217-.356-.24-.296-.436l.197-.119c-.08-.14-.356-.098-.376-.319.02-.117-.06-.314.08-.412.278.038.555-.042.813-.062l.036.062zm6.754.653c.376.177.733.375 1.089.57.018.222-.238.204-.319.36-.037.06.025.22-.098.257-.473-.236-.75-.772-1.17-1.127-.232-.178-.533-.38-.71-.639l.06-.074c.437.118.75.493 1.148.653zm-3.01-.499c-.472.616-1.088 1.212-1.623 1.826l-.199-.122c.02-.315-.435-.234-.395-.534.753-.358 1.443-.912 2.198-1.206l.018.036zm1.843.16c.492.577 1.09 1.131 1.642 1.666-.018.179-.215.038-.297.136-.098.08 0 .258-.157.301-.518-.675-.971-1.407-1.464-2.122l.056-.098.22.117zm-1.567.02c-.412.694-.83 1.408-1.168 2.139l-.159.024c-.036-.123-.117-.259-.234-.3l-.22-.082c.553-.613 1.167-1.247 1.725-1.86l.056.078zm1.149.06c.517.634.756 1.366 1.348 1.962l.06.216c-.099.16-.276 0-.416.08-.082.08-.1.22-.217.24l-.14-.141c-.138-.813-.573-1.504-.77-2.295l.135-.062zm-.847.118l-.597 2.38-.159.06c-.04-.437-.891-.024-.516-.558.38-.634.755-1.267 1.07-1.901.06-.081.202-.1.202.02zm.277.774c-.025.534.036 1.15.078 1.666-.158.375-.417-.239-.657.098-.197-.14-.056-.398-.02-.577.26-.59.297-1.267.456-1.9l.143-.019v.732zm.332-.633c.2.774.477 1.525.754 2.257-.179.338-.516-.236-.694.18l-.159-.138c.024-.813-.057-1.525-.057-2.341l.037-.099.119.14zm-9.128.93c-.08.12-.395-.138-.376.177.118.277.315-.118.474.122.16.019.24-.338.276-.042l.161.042c.118-.042.036-.22.178-.202.061.08.038.221.178.221l.16-.178.215.16c.141-.063 0-.277.177-.203.099.357.536.103.775.32.081.08-.018.215.1.257l.195-.116c.123.276.813.018.577.511l.198.177c-.198.123-.179.4-.339.518l-.214.06c.116.137.333-.06.393.137-.258.177.118.657-.295.577a.446.446 0 0 1-.258-.276c.06-.143 0-.279.098-.4l-.018-.037-.635-.043c-.078.14-.177.3-.256.436l-.099.277c-.123-.019-.239-.055-.301-.196-.019-.24.301-.278.339-.456-.455-.018-.873-.037-1.309.019a.66.66 0 0 1-.217.417L6.55 42l.217-.257c-.057-.197-.377 0-.296-.277l-.117-.197c-.123-.019-.16.098-.18.179l-.06.115c-.117-.078-.079-.276-.239-.337-.098-.018-.235.043-.297-.075-.018-.16.062-.356-.08-.48-.178-.158-.394.32-.435-.079l.1-.153c.14.037.397.136.435-.104l.122-.197c.332.12.217-.337.492-.377.122.02.277 0 .338.12zm4.019 1.13a.688.688 0 0 1-.098.534c-.141.142-.337.217-.515.142l-.02-.042c.1-.259.339-.535.198-.812-.136-.258-.414-.395-.653-.555v-.078c.417.115.873.375 1.088.81zm-3.047-.517l-.081.1-.098-.08c-.019-.119.16-.119.179-.02zm.374 0l-.038.1-.14-.058.178-.042zm.018.456l-.078.098-.118-.098c0-.118.196-.118.196 0zm0 .517l-.116-.02.06-.141.056.16zm-.313-.062l-.098.121-.1-.059.057-.161.141.1zm1.088-.038l-.079.1-.1-.062.179-.038zm-1.464.038l-.08.121-.12-.096c-.02-.143.177-.124.2-.025zm1.07-.018l-.042.06-.1-.042.142-.018zm14.93-6.003l-.081.117-.117-.117c0-.1.197-.141.197 0zm.417.037l-.08.098-.098-.098.056-.08.122.08zm.375.024l-.14.074v-.178l.14.104zm-2.595.216c-.16.217.359.356.08.554l-.257.14c-.14-.098.1-.18.117-.278l-.16-.04-.176.12c.12-.178-.2-.201-.04-.337.119-.122.276-.301.436-.16zm1.802.197l-.08.098-.018-.155.098.057zm.436.042l-.08.098-.116-.062c-.024-.116.178-.178.196-.036zm.338.098l-.098-.042.036-.118.062.16zm.455.339l-.06.073-.08-.055.14-.018zm-.417 0l-.038.098-.098-.08.136-.018zm.455.455l-.099.055-.062-.055.062-.08.099.08zm-2.79.533c.018.137-.26.316-.02.395h.02c-.08.178-.142.359-.241.536-.056-.037.02-.315-.177-.217l-.04-.041.414-.673h.044zm-.16 1.33c-.02-.122.098-.24.16-.339.018.119-.043.277-.16.34zm4.375.356l-.08.019.024-.32c.216 0 0 .198.056.301zm-5.347.99l-.037.1-.1-.061.137-.039zm2.655.333l-.038.08-.078-.055c-.062-.061.135-.18.116-.025zm-.018.4l-.043.099-.098-.038.14-.06zm-3.387.257l-.061.1-.08-.062.14-.038zm-.812.119l-.041.04-.081-.079c.024-.14.179-.06.122.039zm.039.399l-.062.098-.075-.062.039-.098.098.062zm-.356.036l-.1.1-.08-.1c-.018-.116.18-.078.18 0zM5.22 31.263c-.16.218-.06.573-.119.812-.156.278-.476.519-.414.874.08.216.06.432-.019.653-.08.135-.24.135-.357.097l-.098-.16c.337-.079.295-.436.355-.694-.06-.154-.418-.117-.276-.333.117-.1.356-.023.395-.22.138-.337.237-.695.294-1.029.062-.079.258-.2.24 0zm.951.235c-.257.202-.121.577-.219.835l-.394.456c0 .276.136.615-.196.77-.222-.019-.062-.277-.08-.414.018-.098.037-.24-.08-.3-.179-.019-.08.22-.222.202-.056-.141-.017-.276.025-.417.197-.217.492.355.535-.118l-.098-.695c.098-.177.233-.398.43-.474.125 0 .259.02.3.155zm-1.88 1.587l-.12.019-.04-.258.082-.056.079.295zm3.05.517c-.14.177-.318.337-.338.572l-.216.042c-.142-.121-.122-.32-.04-.437.077-.098.157-.22.298-.24.098.02.235-.057.295.063zm-.813.116c-.196.141-.078.555-.375.499-.12-.061-.08-.24-.04-.34.098-.097.275-.355.415-.16zm-.792.399l-.178.057v-.333l.277-.104c.038.122-.06.259-.099.38zm-.474-.32l-.16.16c-.079.117.039.396-.197.357-.12-.08-.08-.257 0-.357.1-.098.217-.239.357-.16zm-.774.16c-.098.137-.042.417-.238.417l-.02-.298c.062-.081.179-.26.258-.119zm.892 1.132l-.08.155-.038-.1.118-.055zm-2.06.412c.316 1.31.493 2.718.276 4.104-.116-.1-.04-.315-.116-.437-.38-.18.215-.315-.08-.512.057-.16.08-.319-.041-.46.042-.098.178-.196.06-.316l-.018-.239c.179-.16-.08-.394.118-.554-.32-.116.036-.393-.24-.552.178-.141.08-.32-.018-.456.06-.357-.216-.615-.297-.935.199-.098.235.22.356.357zm2.336-.136l-.098.18-.098-.08c.018-.08.16-.277.196-.1zm-1.781.652l.098.874.117-.08c0-.277.024-.595-.018-.892h.078c.1.395.1.832.222 1.189.116 0 .036-.1.116-.138.18.08.137.334.357.414.1.141-.078.301-.02.456-.022.178.099.534-.156.613-.321-.177-.28.359-.597.339v.14c-.26.333 0 .672-.056 1.07 0 .474-.06.869-.179 1.305l-.08-.057c.136-1.824.136-3.866-.122-5.705l.122-.081.118.553zm1.98-.337l-.058.337-.12-.116c.041-.08.041-.399.178-.221zm.219.319c-.041.136-.024.315-.178.357l.018-.318c.038-.058.136-.16.16-.04zm.234.413a.618.618 0 0 1-.177.38l-.136-.122c.038-.098.177-.394.313-.258zm.32.775c.098.14-.08.24-.16.338l-.16.018c-.018-.136 0-.278-.137-.376.04-.178.161-.338.297-.474.222.118-.338.592.16.494zm-3.663-.08l.02.178h-.081v-.178h.06zm3.822.356c.02.16.117.338-.023.457l-.137-.1c.04-.136.02-.338.16-.357zm-3.766.222c.041.511.178 1.046.041 1.58h-.06c-.018-.492-.055-1.167-.038-1.643l.057.063zm-.375.732l-.118-.118c-.018-.179-.097-.418.019-.558.197.178.141.436.1.676zm2.082.732c-.08.142-.282.08-.38.04-.08-.12.023-.3.098-.397l.302-.117c.078.159-.02.313-.02.474zm-.103.374c-.535.479-.235 1.231-.413 1.826-.16-.079-.08-.338-.061-.478l.043-1.305c.116-.098.313-.14.43-.043zm1.35.916l-.061.137-.116-.137c-.023-.14.177-.14.177 0zm.432 0l-.099.098-.098-.06c.019-.08.16-.16.197-.038zm.398.02l-.079.117-.098-.082c-.019-.098.137-.158.177-.036zm.358.036l-.16.042.042-.14.118.098zm8.804 7.883c-.248-.225-.545-.326-.899-.326-.171.048-.349.124-.42.301-.101.172-.124.42.048.545.124.1.301.052.425 0 .301-.124.675-.225.846-.52zm8.294-.977l-.078-.076-.747-.025c-.074.249.174.551.15.853-.15.248-.473.17-.675.348l.053.327c.472.17.948-.102 1.272-.379l.025-1.048zm-11.44-.076c-.173-.197-.576-.048-.847-.127l-.1.102c.023.325-.048.698.047 1.024.302-.023.65.125.9-.07v-.93zM9.829 47.3c-.178-.224-.552-.071-.83-.124-.094.25.155.502.155.798-.077.327-.504.202-.699.404-.052.123-.029.271.096.348.449.15.875-.125 1.223-.373l.055-1.053zm-4.473-.048l-.075-.1h-.923c-.125.302-.049.652-.078.977.155.195.478.147.704.124.597.023.297-.675.372-1zm22.075-.426c.327-.025.675.049.775.403v.071c-.172.077-.425-.071-.574.125v2.55c-.17.1-.372-.178-.526-.272-.048-.378.03-.875 0-1.278-.248-.172-.645-.124-.899-.047-.247.071-.273.396-.273.572.078.327.25.598.473.877l-.123.173-.077-.025c-.374-.55-.969-1.125-.698-1.846.379-.48 1.054-.202 1.549-.325.078-.101.048-.278.025-.403l-.101-.076h-2.093l-.078.076v2.551c-.149.07-.326-.155-.498-.226-.178-.153.172-.674-.278-.501-.249.152-.62.224-.898.076-.45-.25-.698-.7-.799-1.172.226-.202.65-.155.776-.48-.054-.123-.023-.324-.202-.349h-1.124l-.077.1v2.528c-.195.024-.45-.154-.544-.326 0-.403.046-.929-.028-1.301-.227-.078-.551-.1-.747.023.126.277.42.552.325.9-.13.2-.354.301-.602.278-.721-.078-1.125-.853-1.397-1.428l.125-.147c.224.202.325.522.55.746.15.203.426.303.65.225.225-.095.172-.373.048-.52l-.402-.527.13-.101c.42 0 .923.054 1.348-.047v-.378l-.154-.048-2.573-.048c-.1-.13-.27-.303-.248-.45l8.866.07.078-.07c-.177-.303-.402-.627-.73-.775-.246.022-.548.07-.595-.255l-.024-.295c.173-.101.45-.077.62.046.475.35.676.877 1.024 1.326zm-14.256-.124c1.196.047 2.421.047 3.644.047.15.126.273.302.302.45-.177.126-.549-.1-.574.202v2.473c-.154.1-.324-.148-.478-.2-.173-.149.028-.421-.125-.575-.326.202-.674.378-1.07.248-.378-.148-.75-.52-.829-.898a.776.776 0 0 1 .426-.771c.249-.176.675-.176.977-.075.202.075.325.349.52.371a1.527 1.527 0 0 0 0-.697l-.123-.048-2.349-.03-.094.078-.03 2.574c-.197.047-.397-.178-.55-.303-.025-.2.076-.45-.025-.65l-.822-.07c-.277.048.024.349-.225.425-.348-.1-.626-.45-.751-.774 0-.126.178-.126.278-.178.071-.327.025-.698.048-1.024-.225-.179-.574-.079-.845-.1l-.102.123v2.55c-.2.024-.378-.2-.526-.302-.078-.124.047-.395-.1-.496-.272.147-.598.295-.947.173-.48-.149-.728-.646-.952-1.049-.295 0-.652-.076-.8.273-.17.501.201.876.426 1.254l-.148.124c-.4-.526-.999-1.124-.727-1.829.374-.496 1.047-.273 1.598-.32.124.149.253.095.378 0 .149-.1.07-.277.024-.401l-.149-.125H6.031l-.1.077-.025 2.568c-.177.101-.325-.172-.473-.224-.1-.226-.077-.521-.052-.77-.126-.13-.326.025-.521 0-.225 0-.38-.13-.55-.278-.178.076-.302.278-.428.373.126.355.45.627.698.93L4.458 50h-.1c-.428-.599-1.003-1.172-1.226-1.824.024-.102.125-.224.25-.202.129 0 .277.249.378.024-.053-.273.07-.644-.101-.846l-.799-.054c-.1-.124-.224-.272-.224-.42l.798-.028 9.34.052.1-.052c-.178-.273-.372-.624-.698-.771-.2-.053-.478.173-.55-.153-.053-.147-.202-.326-.023-.426.87-.149 1.125.929 1.572 1.402z"/>
        <path fill="#000" d="M42.543 10.958v6.207c0 .73.137 1.335.41 1.818.406.73 1.09 1.094 2.05 1.094 1.154 0 1.938-.394 2.352-1.182.224-.429.335-1.005.335-1.73v-6.207h1.381v5.64c0 1.235-.166 2.185-.499 2.85-.61 1.212-1.763 1.819-3.459 1.819-1.695 0-2.846-.607-3.452-1.819-.333-.665-.499-1.615-.499-2.85v-5.64h1.381zm8.47 2.72h1.169v1.04c.346-.429.713-.736 1.1-.923.388-.187.818-.28 1.292-.28 1.04 0 1.741.362 2.106 1.087.2.396.3.963.3 1.702V21h-1.25v-4.614c0-.447-.067-.807-.199-1.08-.219-.456-.615-.684-1.19-.684-.29 0-.53.03-.717.089-.337.1-.633.3-.889.601a1.811 1.811 0 0 0-.4.749c-.061.258-.092.626-.092 1.104V21h-1.23v-7.321zm7.786.035h1.25V21H58.8v-7.287zm0-2.755h1.25v1.395H58.8v-1.395zm3.903 6.48c0 .634.089 1.165.267 1.593.314.761.877 1.142 1.688 1.142.857 0 1.447-.401 1.77-1.203.178-.442.267-1.007.267-1.696 0-.633-.098-1.162-.294-1.586-.332-.724-.918-1.086-1.756-1.086-.534 0-.99.23-1.371.693-.38.463-.57 1.177-.57 2.143zm1.819-3.923c.606 0 1.116.152 1.53.458.229.164.447.405.657.724V13.68h1.169v10.24H66.64v-3.76a2.208 2.208 0 0 1-.851.783c-.363.194-.815.29-1.357.29-.78 0-1.477-.305-2.092-.916-.615-.61-.923-1.54-.923-2.789 0-1.17.288-2.132.865-2.884.576-.752 1.322-1.128 2.239-1.128zm6.405.164v4.86c0 .374.059.68.178.916.218.438.626.656 1.223.656.857 0 1.44-.382 1.75-1.148.169-.41.253-.973.253-1.689V13.68h1.23V21h-1.162l.014-1.08c-.16.278-.358.513-.595.704-.469.383-1.039.574-1.709.574-1.043 0-1.754-.348-2.132-1.046-.205-.373-.308-.872-.308-1.497V13.68h1.258zm9.604-.164c.52 0 1.023.122 1.511.365.488.244.86.56 1.114.947.246.37.41.8.492 1.292.073.337.11.875.11 1.613H78.39c.022.743.198 1.34.526 1.788.328.449.836.673 1.524.673.643 0 1.156-.212 1.538-.635.22-.246.374-.531.465-.855h1.21c-.032.269-.138.569-.318.9-.18.33-.381.6-.605.81-.373.364-.836.61-1.387.737-.296.073-.631.11-1.005.11-.912 0-1.684-.332-2.318-.995-.633-.663-.95-1.591-.95-2.786 0-1.175.32-2.13.957-2.864.638-.733 1.472-1.1 2.502-1.1zm1.962 3.24c-.05-.533-.166-.96-.348-1.278-.338-.593-.9-.89-1.689-.89-.565 0-1.039.205-1.422.613-.383.408-.585.926-.608 1.555h4.067zm7.137-5.797h1.374V21h-1.374V10.958zm4.197 6.467c0 .784.167 1.44.5 1.969.332.528.865.793 1.599.793.57 0 1.038-.245 1.405-.735.366-.49.55-1.193.55-2.11 0-.924-.19-1.61-.567-2.053-.379-.445-.846-.667-1.402-.667-.62 0-1.122.237-1.507.711-.385.474-.578 1.171-.578 2.092zm1.853-3.876c.56 0 1.03.118 1.408.355.219.137.467.376.745.718v-3.698h1.183V21h-1.108v-1.019c-.287.452-.626.777-1.018.978-.392.2-.841.3-1.347.3-.816 0-1.522-.342-2.12-1.028-.596-.686-.895-1.599-.895-2.738 0-1.066.273-1.99.817-2.772.545-.781 1.323-1.172 2.335-1.172zm8.203-.034c.52 0 1.023.122 1.51.365.488.244.86.56 1.115.947.246.37.41.8.492 1.292.073.337.11.875.11 1.613h-5.367c.023.743.198 1.34.527 1.788.328.449.836.673 1.524.673.643 0 1.155-.212 1.538-.635.219-.246.374-.531.465-.855h1.21c-.032.269-.138.569-.318.9-.18.33-.382.6-.605.81-.374.364-.836.61-1.388.737-.296.073-.63.11-1.005.11-.911 0-1.683-.332-2.317-.995-.633-.663-.95-1.591-.95-2.786 0-1.175.319-2.13.957-2.864.638-.733 1.472-1.1 2.502-1.1zm1.962 3.24c-.05-.533-.167-.96-.349-1.278-.337-.593-.9-.89-1.688-.89-.565 0-1.04.205-1.422.613-.383.408-.586.926-.609 1.555h4.068zm2.775-3.076h1.17v1.039c.345-.429.712-.736 1.1-.923.387-.187.818-.28 1.292-.28 1.039 0 1.74.362 2.105 1.087.2.396.3.963.3 1.702V21h-1.25v-4.614c0-.447-.066-.807-.198-1.08-.22-.456-.616-.684-1.19-.684-.291 0-.53.03-.718.089-.337.1-.633.3-.888.601a1.811 1.811 0 0 0-.4.749c-.062.258-.092.626-.092 1.104V21h-1.23v-7.321zm8.032-2.044h1.245v2.044h1.168v1.005h-1.168v4.778c0 .255.086.426.26.513.095.05.254.075.478.075a3.673 3.673 0 0 0 .43-.02V21c-.14.041-.288.07-.44.089a4.192 4.192 0 0 1-.496.027c-.574 0-.964-.147-1.169-.44-.205-.295-.308-.676-.308-1.146v-4.846h-.99v-1.005h.99v-2.044zm3.644 2.078h1.25V21h-1.25v-7.287zm0-2.755h1.25v1.395h-1.25v-1.395zm3.418 1.606c.018-.51.107-.884.266-1.12.288-.42.841-.63 1.662-.63.077 0 .157.003.239.007l.28.02v1.122a9.998 9.998 0 0 0-.277-.017 4.031 4.031 0 0 0-.16-.004c-.374 0-.597.097-.67.29-.073.195-.11.688-.11 1.48h1.217v.972h-1.23V21h-1.217v-6.316h-1.019v-.971h1.019v-1.149zm3.582 1.149h1.25V21h-1.25v-7.287zm0-2.755h1.25v1.395h-1.25v-1.395zm5.934 2.509c.824 0 1.495.2 2.013.601.517.401.828 1.092.933 2.072h-1.196c-.073-.452-.24-.826-.5-1.125-.26-.298-.676-.448-1.25-.448-.784 0-1.345.383-1.682 1.149-.219.497-.328 1.11-.328 1.839 0 .733.155 1.35.465 1.852.31.502.797.752 1.462.752.51 0 .915-.156 1.214-.468.298-.312.505-.74.619-1.282h1.196c-.137.97-.479 1.68-1.026 2.13-.546.448-1.246.673-2.098.673-.957 0-1.72-.35-2.29-1.05-.57-.699-.855-1.573-.855-2.621 0-1.285.312-2.285.937-3.001.624-.715 1.42-1.073 2.386-1.073zm5.12 5.585c0 .355.13.635.39.84.259.206.567.308.922.308.433 0 .852-.1 1.258-.3.684-.333 1.025-.878 1.025-1.634v-.992c-.15.096-.344.176-.58.24-.238.063-.47.109-.698.136l-.745.096c-.447.06-.782.153-1.005.28-.378.215-.567.556-.567 1.026zm2.98-2.489c.283-.036.472-.154.567-.355.055-.11.083-.267.083-.472 0-.419-.15-.723-.448-.912-.299-.19-.726-.284-1.282-.284-.643 0-1.098.173-1.367.52-.15.191-.249.476-.294.854h-1.149c.023-.902.316-1.53.879-1.883s1.216-.53 1.958-.53c.862 0 1.561.164 2.099.492.533.328.8.839.8 1.531v4.218c0 .128.026.23.078.308.053.077.163.116.332.116.055 0 .116-.003.185-.01.068-.007.14-.017.218-.031v.91a3.427 3.427 0 0 1-.437.102c-.1.013-.237.02-.41.02-.424 0-.732-.15-.923-.45-.1-.16-.171-.386-.212-.678-.25.328-.61.613-1.08.855a3.34 3.34 0 0 1-1.552.362c-.679 0-1.234-.206-1.665-.619-.43-.412-.646-.928-.646-1.548 0-.679.212-1.205.636-1.579.424-.374.98-.604 1.668-.69l1.962-.247zm4.108-4.928h1.245v2.044h1.169v1.005h-1.17v4.778c0 .255.087.426.26.513.096.05.256.075.479.075a3.673 3.673 0 0 0 .43-.02V21c-.14.041-.288.07-.44.089a4.192 4.192 0 0 1-.496.027c-.574 0-.964-.147-1.169-.44-.205-.295-.308-.676-.308-1.146v-4.846h-.99v-1.005h.99v-2.044zm3.644 2.078h1.251V21h-1.25v-7.287zm0-2.755h1.251v1.395h-1.25v-1.395zm6.016 9.249c.815 0 1.375-.309 1.678-.926.303-.618.454-1.305.454-2.061 0-.684-.109-1.24-.328-1.668-.346-.675-.943-1.012-1.79-1.012-.753 0-1.3.287-1.641.861-.342.575-.513 1.267-.513 2.078 0 .78.17 1.43.513 1.949.342.52.884.779 1.627.779zm.048-6.74c.943 0 1.74.314 2.392.943.652.63.978 1.554.978 2.776 0 1.18-.287 2.155-.862 2.925-.574.77-1.465 1.156-2.673 1.156-1.007 0-1.806-.341-2.399-1.022-.592-.682-.889-1.597-.889-2.745 0-1.23.313-2.21.937-2.94.624-.729 1.463-1.093 2.516-1.093zm4.833.212h1.168v1.039c.347-.429.714-.736 1.101-.923.387-.187.818-.28 1.292-.28 1.04 0 1.74.362 2.106 1.087.2.396.3.963.3 1.702V21h-1.25v-4.614c0-.447-.067-.807-.199-1.08-.219-.456-.615-.684-1.19-.684-.291 0-.53.03-.717.089-.337.1-.634.3-.889.601a1.811 1.811 0 0 0-.4.749c-.061.258-.092.626-.092 1.104V21h-1.23v-7.321zm16.228 3.206l-1.524-4.437-1.62 4.437h3.144zm-2.235-5.927h1.538L179.152 21h-1.49l-1.018-3.008h-3.972L171.585 21h-1.395l3.78-10.042zm7.485 2.72v4.861c0 .374.06.68.178.916.219.438.626.656 1.223.656.857 0 1.44-.382 1.75-1.148.169-.41.253-.973.253-1.689V13.68h1.23V21h-1.161l.013-1.08c-.16.278-.357.513-.594.704-.47.383-1.04.574-1.71.574-1.043 0-1.754-.348-2.132-1.046-.205-.373-.308-.872-.308-1.497V13.68h1.258zm6.802-2.043h1.244v2.044h1.169v1.005h-1.169v4.778c0 .255.087.426.26.513.095.05.255.075.478.075a3.673 3.673 0 0 0 .43-.02V21c-.14.041-.287.07-.44.089a4.192 4.192 0 0 1-.496.027c-.574 0-.963-.147-1.169-.44-.205-.295-.307-.676-.307-1.146v-4.846h-.991v-1.005h.99v-2.044zm3.643-.711h1.23v3.746c.293-.37.555-.629.787-.78.396-.26.89-.389 1.483-.389 1.062 0 1.782.371 2.16 1.114.206.406.308.969.308 1.689V21h-1.265v-4.614c0-.538-.068-.932-.205-1.183-.223-.4-.642-.601-1.257-.601-.51 0-.973.175-1.388.526-.415.35-.622 1.014-.622 1.99V21h-1.23V10.924zm10.692 9.283c.816 0 1.375-.309 1.678-.926.303-.618.455-1.305.455-2.061 0-.684-.11-1.24-.329-1.668-.346-.675-.943-1.012-1.79-1.012-.753 0-1.3.287-1.641.861-.342.575-.513 1.267-.513 2.078 0 .78.171 1.43.513 1.949.342.52.884.779 1.627.779zm.048-6.74c.943 0 1.74.314 2.392.943.652.63.978 1.554.978 2.776 0 1.18-.287 2.155-.862 2.925-.574.77-1.465 1.156-2.672 1.156-1.008 0-1.807-.341-2.4-1.022-.592-.682-.889-1.597-.889-2.745 0-1.23.313-2.21.937-2.94.624-.729 1.463-1.093 2.516-1.093zm4.867.212h1.169v1.264c.095-.246.33-.545.704-.899.374-.353.804-.53 1.292-.53.023 0 .061.003.116.007l.28.028v1.299a1.838 1.838 0 0 0-.403-.035c-.62 0-1.096.2-1.429.599a2.088 2.088 0 0 0-.499 1.377V21h-1.23v-7.321zm4.628.034h1.25V21h-1.25v-7.287zm0-2.755h1.25v1.395h-1.25v-1.395zm3.356.677h1.244v2.044h1.17v1.005h-1.17v4.778c0 .255.087.426.26.513.096.05.255.075.479.075a3.673 3.673 0 0 0 .43-.02V21c-.141.041-.288.07-.44.089a4.192 4.192 0 0 1-.496.027c-.574 0-.964-.147-1.17-.44-.204-.295-.307-.676-.307-1.146v-4.846h-.991v-1.005h.991v-2.044zm8.217 2.044h1.36c-.173.47-.558 1.54-1.155 3.213-.447 1.257-.82 2.283-1.121 3.076-.711 1.868-1.212 3.008-1.504 3.418-.292.41-.793.615-1.504.615a2.95 2.95 0 0 1-.4-.02 3.159 3.159 0 0 1-.345-.076v-1.12c.214.058.37.095.465.109.096.013.18.02.253.02.228 0 .395-.038.502-.113a1.04 1.04 0 0 0 .27-.277c.023-.036.105-.223.246-.56.142-.337.244-.588.308-.752l-2.707-7.533h1.394l1.962 5.96 1.976-5.96zm9.222 6.528c.815 0 1.375-.309 1.678-.926.303-.618.454-1.305.454-2.061 0-.684-.109-1.24-.328-1.668-.346-.675-.943-1.012-1.79-1.012-.753 0-1.3.287-1.641.861-.342.575-.513 1.267-.513 2.078 0 .78.17 1.43.513 1.949.342.52.884.779 1.627.779zm.048-6.74c.943 0 1.74.314 2.392.943.652.63.978 1.554.978 2.776 0 1.18-.287 2.155-.862 2.925-.574.77-1.465 1.156-2.673 1.156-1.007 0-1.807-.341-2.399-1.022-.592-.682-.889-1.597-.889-2.745 0-1.23.313-2.21.937-2.94.624-.729 1.463-1.093 2.516-1.093zm5.14-.903c.018-.51.107-.884.267-1.12.287-.42.84-.63 1.66-.63.078 0 .158.003.24.007l.28.02v1.122a9.998 9.998 0 0 0-.276-.017 4.031 4.031 0 0 0-.161-.004c-.374 0-.597.097-.67.29-.073.195-.11.688-.11 1.48h1.217v.972h-1.23V21h-1.217v-6.316h-1.018v-.971h1.018v-1.149zm7.944-1.606h1.374V21h-1.375V10.958zm3.417 2.72h1.17v1.04c.346-.429.713-.736 1.1-.923.387-.187.818-.28 1.292-.28 1.04 0 1.74.362 2.105 1.087.201.396.301.963.301 1.702V21h-1.25v-4.614c0-.447-.067-.807-.199-1.08-.219-.456-.615-.684-1.19-.684-.291 0-.53.03-.717.089-.337.1-.634.3-.889.601a1.811 1.811 0 0 0-.4.749c-.061.258-.092.626-.092 1.104V21h-1.23v-7.321zm8.566 3.747c0 .784.166 1.44.499 1.969.333.528.866.793 1.6.793.57 0 1.037-.245 1.404-.735s.55-1.193.55-2.11c0-.924-.189-1.61-.567-2.053-.378-.445-.845-.667-1.401-.667-.62 0-1.122.237-1.507.711-.386.474-.578 1.171-.578 2.092zm1.852-3.876c.561 0 1.03.118 1.409.355.218.137.467.376.745.718v-3.698h1.182V21h-1.107v-1.019c-.287.452-.627.777-1.019.978-.392.2-.84.3-1.346.3-.816 0-1.522-.342-2.12-1.028-.596-.686-.895-1.599-.895-2.738 0-1.066.272-1.99.817-2.772.545-.781 1.323-1.172 2.334-1.172zm5.155.164h1.25V21h-1.25v-7.287zm0-2.755h1.25v1.395h-1.25v-1.395zm4.053 8.094c0 .355.13.635.39.84.26.206.567.308.923.308.433 0 .852-.1 1.258-.3.683-.333 1.025-.878 1.025-1.634v-.992c-.15.096-.344.176-.58.24-.238.063-.47.109-.698.136l-.745.096c-.447.06-.782.153-1.005.28-.378.215-.568.556-.568 1.026zm2.98-2.489c.283-.036.473-.154.568-.355.055-.11.082-.267.082-.472 0-.419-.149-.723-.447-.912-.299-.19-.726-.284-1.282-.284-.643 0-1.098.173-1.367.52-.15.191-.249.476-.294.854h-1.149c.023-.902.316-1.53.879-1.883s1.215-.53 1.958-.53c.862 0 1.561.164 2.099.492.533.328.8.839.8 1.531v4.218c0 .128.026.23.078.308.053.077.163.116.332.116.054 0 .116-.003.184-.01.069-.007.142-.017.22-.031v.91a3.427 3.427 0 0 1-.438.102c-.1.013-.237.02-.41.02-.424 0-.732-.15-.923-.45-.1-.16-.171-.386-.212-.678-.251.328-.611.613-1.08.855a3.34 3.34 0 0 1-1.552.362c-.68 0-1.234-.206-1.665-.619-.43-.412-.646-.928-.646-1.548 0-.679.212-1.205.636-1.579.424-.374.98-.604 1.668-.69l1.962-.247zM44.645 33.232v-.696h3.696V37h-.696v-1.476c-.152.256-.326.49-.522.702a2.88 2.88 0 0 1-.678.54 3.286 3.286 0 0 1-.888.342c-.336.08-.716.12-1.14.12a3.916 3.916 0 0 1-1.512-.288 3.233 3.233 0 0 1-1.2-.858c-.336-.38-.598-.858-.786-1.434-.188-.576-.282-1.248-.282-2.016 0-.632.08-1.222.24-1.77.16-.548.406-1.024.738-1.428a3.49 3.49 0 0 1 1.248-.954c.5-.232 1.09-.348 1.77-.348.456 0 .882.056 1.278.168a3.38 3.38 0 0 1 1.068.51c.316.228.582.512.798.852.216.34.372.742.468 1.206h-.84a2.529 2.529 0 0 0-.984-1.506 2.792 2.792 0 0 0-.804-.396 3.095 3.095 0 0 0-.924-.138c-.568 0-1.056.1-1.464.3-.408.2-.744.482-1.008.846s-.458.8-.582 1.308a7.057 7.057 0 0 0-.186 1.674c0 .48.07.936.21 1.368.14.432.344.812.612 1.14.268.328.596.588.984.78.388.192.83.288 1.326.288.232 0 .472-.026.72-.078a2.776 2.776 0 0 0 1.368-.726c.2-.192.372-.428.516-.708.136-.272.23-.556.282-.852.052-.296.082-.608.09-.936h-2.916zm8.028 3.936c-.4-.008-.774-.08-1.122-.216a2.513 2.513 0 0 1-.912-.612 2.938 2.938 0 0 1-.618-1.02c-.152-.408-.228-.884-.228-1.428 0-.456.06-.882.18-1.278s.3-.742.54-1.038c.24-.296.54-.53.9-.702.36-.172.78-.258 1.26-.258.488 0 .912.086 1.272.258.36.172.66.404.9.696.24.292.418.638.534 1.038.116.4.174.828.174 1.284 0 .496-.068.944-.204 1.344-.136.4-.33.744-.582 1.032-.252.288-.556.51-.912.666-.356.156-.75.234-1.182.234zm2.112-3.276c0-.368-.04-.712-.12-1.032a2.445 2.445 0 0 0-.372-.834 1.787 1.787 0 0 0-.648-.558c-.264-.136-.588-.204-.972-.204-.376 0-.698.074-.966.222a1.89 1.89 0 0 0-.654.588 2.585 2.585 0 0 0-.372.84 3.97 3.97 0 0 0-.12.978c0 .384.046.738.138 1.062.092.324.226.602.402.834.176.232.396.412.66.54.264.128.568.192.912.192.376 0 .698-.074.966-.222.268-.148.486-.346.654-.594.168-.248.292-.528.372-.84.08-.312.12-.636.12-.972zm1.428-3.108h.78l2.016 5.328 2.016-5.328h.78L59.392 37h-.804l-2.376-6.216zm11.16 2.676c0-.304-.042-.59-.126-.858a2.005 2.005 0 0 0-.372-.696 1.77 1.77 0 0 0-.618-.468 1.99 1.99 0 0 0-.852-.174c-.32 0-.602.06-.846.18s-.452.28-.624.48c-.172.2-.31.432-.414.696a3.227 3.227 0 0 0-.204.84h4.056zm-4.056.6c0 .336.044.654.132.954.088.3.218.56.39.78.172.22.39.396.654.528s.568.198.912.198c.472 0 .876-.124 1.212-.372.336-.248.56-.6.672-1.056h.804c-.088.296-.204.57-.348.822a2.536 2.536 0 0 1-.54.66 2.334 2.334 0 0 1-.768.438 3.11 3.11 0 0 1-1.032.156c-.496 0-.924-.084-1.284-.252a2.421 2.421 0 0 1-.888-.69 2.912 2.912 0 0 1-.516-1.032 4.678 4.678 0 0 1-.168-1.278c0-.456.066-.884.198-1.284s.32-.75.564-1.05c.244-.3.542-.536.894-.708a2.699 2.699 0 0 1 1.2-.258c.856 0 1.528.294 2.016.882.488.588.728 1.442.72 2.562h-4.824zM70.3 37h-.72v-6.216h.72v1.164h.024c.2-.496.458-.842.774-1.038.316-.196.734-.294 1.254-.294v.78c-.408-.008-.744.056-1.008.192s-.474.32-.63.552a2.186 2.186 0 0 0-.324.822c-.06.316-.09.646-.09.99V37zm4.176 0h-.72v-6.216h.72v.864c.288-.304.586-.552.894-.744.308-.192.678-.288 1.11-.288.384 0 .74.066 1.068.198.328.132.604.362.828.69.152.224.242.454.27.69.028.236.042.482.042.738V37h-.72v-4.056c0-.56-.124-.98-.372-1.26s-.66-.42-1.236-.42c-.224 0-.428.034-.612.102-.184.068-.35.158-.498.27a1.809 1.809 0 0 0-.618.84c-.072.2-.116.392-.132.576a6.954 6.954 0 0 0-.024.6V37zm6.576 0h-.72v-6.216h.72v.936h.024c.184-.36.448-.634.792-.822.344-.188.72-.282 1.128-.282.288 0 .532.032.732.096.2.064.37.15.51.258.14.108.256.234.348.378.092.144.17.3.234.468.208-.408.486-.71.834-.906a2.39 2.39 0 0 1 1.194-.294c.424 0 .762.07 1.014.21.252.14.446.324.582.552.136.228.226.49.27.786.044.296.066.6.066.912V37h-.72v-4.296c0-.448-.094-.8-.282-1.056-.188-.256-.538-.384-1.05-.384-.264 0-.518.058-.762.174a1.762 1.762 0 0 0-.642.534c-.08.104-.146.226-.198.366-.052.14-.094.286-.126.438a3.579 3.579 0 0 0-.066.456 5.366 5.366 0 0 0-.018.42V37h-.72v-4.296c0-.448-.094-.8-.282-1.056-.188-.256-.538-.384-1.05-.384-.264 0-.518.058-.762.174a1.762 1.762 0 0 0-.642.534c-.08.104-.146.226-.198.366-.052.14-.094.286-.126.438a3.579 3.579 0 0 0-.066.456 5.366 5.366 0 0 0-.018.42V37zm13.872-3.54c0-.304-.042-.59-.126-.858a2.005 2.005 0 0 0-.372-.696 1.77 1.77 0 0 0-.618-.468 1.99 1.99 0 0 0-.852-.174c-.32 0-.602.06-.846.18s-.452.28-.624.48c-.172.2-.31.432-.414.696a3.227 3.227 0 0 0-.204.84h4.056zm-4.056.6c0 .336.044.654.132.954.088.3.218.56.39.78.172.22.39.396.654.528s.568.198.912.198c.472 0 .876-.124 1.212-.372.336-.248.56-.6.672-1.056h.804c-.088.296-.204.57-.348.822a2.536 2.536 0 0 1-.54.66 2.334 2.334 0 0 1-.768.438 3.11 3.11 0 0 1-1.032.156c-.496 0-.924-.084-1.284-.252a2.421 2.421 0 0 1-.888-.69 2.912 2.912 0 0 1-.516-1.032 4.678 4.678 0 0 1-.168-1.278c0-.456.066-.884.198-1.284s.32-.75.564-1.05c.244-.3.542-.536.894-.708a2.699 2.699 0 0 1 1.2-.258c.856 0 1.528.294 2.016.882.488.588.728 1.442.72 2.562h-4.824zM97.816 37h-.72v-6.216h.72v.864c.288-.304.586-.552.894-.744.308-.192.678-.288 1.11-.288.384 0 .74.066 1.068.198.328.132.604.362.828.69.152.224.242.454.27.69.028.236.042.482.042.738V37h-.72v-4.056c0-.56-.124-.98-.372-1.26s-.66-.42-1.236-.42c-.224 0-.428.034-.612.102-.184.068-.35.158-.498.27a1.809 1.809 0 0 0-.618.84c-.072.2-.116.392-.132.576a6.954 6.954 0 0 0-.024.6V37zm8.136.024a4.128 4.128 0 0 0-.348.084c-.144.04-.304.06-.48.06-.36 0-.634-.09-.822-.27-.188-.18-.282-.502-.282-.966v-4.548h-.876v-.6h.876v-1.728h.72v1.728h1.164v.6h-1.164v4.26c0 .152.004.284.012.396a.664.664 0 0 0 .072.276c.04.072.102.124.186.156s.202.048.354.048c.096 0 .194-.008.294-.024.1-.016.198-.036.294-.06v.588zm6.96.144c-.4-.008-.774-.08-1.122-.216a2.513 2.513 0 0 1-.912-.612 2.938 2.938 0 0 1-.618-1.02c-.152-.408-.228-.884-.228-1.428 0-.456.06-.882.18-1.278s.3-.742.54-1.038c.24-.296.54-.53.9-.702.36-.172.78-.258 1.26-.258.488 0 .912.086 1.272.258.36.172.66.404.9.696.24.292.418.638.534 1.038.116.4.174.828.174 1.284 0 .496-.068.944-.204 1.344-.136.4-.33.744-.582 1.032-.252.288-.556.51-.912.666-.356.156-.75.234-1.182.234zm2.112-3.276c0-.368-.04-.712-.12-1.032a2.445 2.445 0 0 0-.372-.834 1.787 1.787 0 0 0-.648-.558c-.264-.136-.588-.204-.972-.204-.376 0-.698.074-.966.222a1.89 1.89 0 0 0-.654.588 2.585 2.585 0 0 0-.372.84 3.97 3.97 0 0 0-.12.978c0 .384.046.738.138 1.062.092.324.226.602.402.834.176.232.396.412.66.54.264.128.568.192.912.192.376 0 .698-.074.966-.222.268-.148.486-.346.654-.594.168-.248.292-.528.372-.84.08-.312.12-.636.12-.972zm1.464-2.508v-.6h.924V29.8c0-.496.1-.888.3-1.176.2-.288.54-.432 1.02-.432a3.77 3.77 0 0 1 .6.048v.66a1.8 1.8 0 0 0-.432-.06c-.184 0-.328.034-.432.102a.598.598 0 0 0-.228.27 1.219 1.219 0 0 0-.09.378c-.012.14-.018.282-.018.426v.768h1.2v.6h-1.2V37h-.72v-5.616h-.924zM124.18 37v-8.64h.816V37h-.816zm3.66 0h-.72v-6.216h.72v.864c.288-.304.586-.552.894-.744.308-.192.678-.288 1.11-.288.384 0 .74.066 1.068.198.328.132.604.362.828.69.152.224.242.454.27.69.028.236.042.482.042.738V37h-.72v-4.056c0-.56-.124-.98-.372-1.26s-.66-.42-1.236-.42c-.224 0-.428.034-.612.102-.184.068-.35.158-.498.27a1.809 1.809 0 0 0-.618.84c-.072.2-.116.392-.132.576a6.954 6.954 0 0 0-.024.6V37zm10.752-3.132c0-.352-.048-.686-.144-1.002a2.594 2.594 0 0 0-.414-.828c-.18-.236-.4-.424-.66-.564a1.83 1.83 0 0 0-.882-.21c-.376 0-.7.074-.972.222-.272.148-.496.35-.672.606a2.62 2.62 0 0 0-.384.894c-.08.34-.112.706-.096 1.098 0 .392.054.738.162 1.038.108.3.258.554.45.762.192.208.416.366.672.474.256.108.536.162.84.162.336 0 .636-.068.9-.204.264-.136.484-.322.66-.558a2.56 2.56 0 0 0 .402-.84 3.83 3.83 0 0 0 .138-1.05zm0-5.508h.72V37h-.72v-1.092h-.024a1.95 1.95 0 0 1-.402.546 2.44 2.44 0 0 1-.54.39 2.896 2.896 0 0 1-.606.24 2.348 2.348 0 0 1-.612.084c-.504 0-.932-.084-1.284-.252a2.391 2.391 0 0 1-.87-.69 2.815 2.815 0 0 1-.498-1.038 5.087 5.087 0 0 1-.156-1.284c0-.432.056-.848.168-1.248.112-.4.282-.75.51-1.05.228-.3.516-.54.864-.72.348-.18.758-.27 1.23-.27.44 0 .862.098 1.266.294.404.196.722.486.954.87v-3.42zm2.64 8.64v-6.216h.72V37h-.72zm-.036-7.572V28.36h.792v1.068h-.792zm6.66 4.308a3.53 3.53 0 0 1-.924.252c-.312.04-.624.072-.936.096-.552.04-.982.164-1.29.372-.308.208-.462.524-.462.948 0 .192.038.358.114.498.076.14.176.256.3.348.124.092.268.16.432.204.164.044.33.066.498.066.288 0 .568-.036.84-.108.272-.072.514-.182.726-.33.212-.148.382-.336.51-.564.128-.228.192-.498.192-.81v-.972zm-1.212-.36a9.74 9.74 0 0 0 .486-.072c.188-.032.342-.076.462-.132a.382.382 0 0 0 .222-.282c.028-.132.042-.254.042-.366 0-.368-.118-.67-.354-.906s-.634-.354-1.194-.354c-.248 0-.476.022-.684.066-.208.044-.39.12-.546.228a1.258 1.258 0 0 0-.384.432c-.1.18-.166.406-.198.678h-.732c.024-.368.108-.682.252-.942.144-.26.33-.472.558-.636.228-.164.492-.284.792-.36.3-.076.618-.114.954-.114.312 0 .606.034.882.102.276.068.516.176.72.324.204.148.364.346.48.594.116.248.174.552.174.912v3.384c0 .28.05.458.15.534.1.076.302.058.606-.054v.564l-.246.072a1.116 1.116 0 0 1-.318.048c-.112 0-.22-.012-.324-.036a.554.554 0 0 1-.288-.114.703.703 0 0 1-.174-.216.895.895 0 0 1-.09-.276 2.013 2.013 0 0 1-.024-.318 3.126 3.126 0 0 1-1.044.768 3.07 3.07 0 0 1-1.272.264c-.272 0-.534-.036-.786-.108a1.902 1.902 0 0 1-.666-.336 1.669 1.669 0 0 1-.456-.558 1.713 1.713 0 0 1-.168-.786c0-1.056.724-1.68 2.172-1.872l.996-.132z" opacity=".9"/>
    </g>
</svg>
